<?xml version="1.0" encoding="UTF-8"?>
<!DOCTYPE svg PUBLIC "-//W3C//DTD SVG 1.1//EN" "http://www.w3.org/Graphics/SVG/1.1/DTD/svg11.dtd">
<svg width="2062" height="2065" xmlns="http://www.w3.org/2000/svg" viewBox="0 0 2062 2065" version="1.1"
     xmlns:xlink="http://www.w3.org/1999/xlink">
    <g transform="translate(0,0)">
        <g class="region-wrapper">
            <g transform="translate(0,0)">
                <path style="fill: rgba(224, 231, 255, 0.3); stroke: rgb(221, 221, 221); stroke-width: 0;"
                      class="polymap" id="left"
                      d="M 348.896 -65.874 L 527.08 -65.874 L 525.956 34.126 L 528.654 634.126 L 748.896 905.957 C 773.652 968.974 948.896 1071.946 948.896 1134.126 L 926.876 1277.473 L 876.994 1434.126 C 848.896 1398.35 848.896 1534.126 648.896 1634.126 L 476.589 1889.147 L 473.326 2134.126 L -351.104 2134.126 L -351.104 -65.874 C -354.62 -60.38 83.529 -65.874 148.896 -65.874 L 348.896 -65.874 Z"/>

                <g>
                    <g id="regions-group">
                        <g id="northern_midland_and_mountainous_region" class="regions">
                            <path style="opacity:0.995" fill="#fe7f0e"
                                  d="M 770.5,264.5 C 767.187,265.045 763.854,265.545 760.5,266C 759.833,267 759.167,268 758.5,269C 755.068,269.116 752.068,270.283 749.5,272.5C 751.77,274.602 753.437,277.102 754.5,280C 754.167,281 753.833,282 753.5,283C 754.697,285.589 755.697,288.256 756.5,291C 755.837,293.724 754.337,294.224 752,292.5C 746.908,294.443 741.741,295.11 736.5,294.5C 733.458,297.342 730.458,300.176 727.5,303C 725.377,303.815 723.377,304.815 721.5,306C 722.602,308.401 722.769,310.901 722,313.5C 720.692,315.641 719.192,317.641 717.5,319.5C 713.3,318.863 709.134,318.196 705,317.5C 703.98,318.891 703.147,320.391 702.5,322C 691.965,321.358 681.632,319.692 671.5,317C 669.715,313.482 666.715,311.982 662.5,312.5C 660.167,312.667 657.833,312.833 655.5,313C 652.686,315.142 649.853,317.308 647,319.5C 645.395,318.899 644.062,317.899 643,316.5C 642.424,318.377 642.591,320.211 643.5,322C 643.275,323.621 642.442,324.788 641,325.5C 638.929,324.225 637.429,322.391 636.5,320C 630.685,320.382 625.852,318.215 622,313.5C 620.867,315.211 619.367,315.711 617.5,315C 612.807,313.292 608.64,310.792 605,307.5C 603.836,313.045 601.503,313.712 598,309.5C 598.218,307.413 598.051,305.413 597.5,303.5C 594.752,302.187 591.919,301.187 589,300.5C 587.872,298.655 587.372,296.655 587.5,294.5C 584.383,294.872 581.383,294.872 578.5,294.5C 577.682,292.892 577.015,291.225 576.5,289.5C 573.511,286.382 569.844,284.382 565.5,283.5C 561.391,278.799 557.391,273.965 553.5,269C 550.186,267.835 548.186,269.002 547.5,272.5C 543.864,273.879 540.364,275.545 537,277.5C 532.502,273.567 528.002,273.567 523.5,277.5C 524.967,281.069 526.134,284.736 527,288.5C 528.583,288.493 530.249,288.826 532,289.5C 532.576,291.377 532.409,293.211 531.5,295C 533.978,297.478 536.478,299.978 539,302.5C 538.981,304.107 538.815,305.774 538.5,307.5C 536.253,307.085 534.086,306.418 532,305.5C 531.167,305.833 530.333,306.167 529.5,306.5C 528.5,309.834 527.5,313.167 526.5,316.5C 520.525,319.253 519.859,323.086 524.5,328C 523.162,331.133 522.329,334.299 522,337.5C 524.915,341.141 528.249,341.474 532,338.5C 534.599,341.223 537.099,344.057 539.5,347C 542.29,347.561 544.623,348.894 546.5,351C 549.482,351.498 552.482,351.665 555.5,351.5C 555.414,353.677 554.747,355.677 553.5,357.5C 554.952,358.94 555.952,360.606 556.5,362.5C 555.152,363.527 554.652,364.86 555,366.5C 556.095,365.307 556.928,363.973 557.5,362.5C 559.593,363.045 561.593,363.878 563.5,365C 562.978,365.561 562.645,366.228 562.5,367C 564.067,370.298 564.9,373.798 565,377.5C 568.157,379.126 568.991,381.459 567.5,384.5C 568.241,387.634 569.241,390.634 570.5,393.5C 572.467,393.261 574.301,393.594 576,394.5C 578.102,397.705 579.935,401.038 581.5,404.5C 583.576,406.288 585.743,407.954 588,409.5C 588.662,411.813 589.162,414.146 589.5,416.5C 585.317,417.154 582.484,415.488 581,411.5C 580.283,412.044 579.783,412.711 579.5,413.5C 577.833,413.5 576.167,413.5 574.5,413.5C 574.232,415.099 574.566,416.432 575.5,417.5C 575.631,418.376 575.298,419.043 574.5,419.5C 571.898,418.346 569.232,417.846 566.5,418C 568.164,420.982 569.831,423.982 571.5,427C 570.387,428.394 569.053,429.561 567.5,430.5C 565.167,428.667 562.833,426.833 560.5,425C 557.607,423.851 554.607,423.351 551.5,423.5C 546.367,423.921 541.534,422.921 537,420.5C 535.739,420.759 534.739,421.426 534,422.5C 528.577,420.535 523.41,418.202 518.5,415.5C 516.979,412.25 515.312,408.917 513.5,405.5C 507.77,402.997 502.104,400.163 496.5,397C 493.189,397.215 489.856,397.215 486.5,397C 483.167,392.333 479.167,388.333 474.5,385C 470.021,384.437 466.021,385.603 462.5,388.5C 460.829,390.51 460.162,392.843 460.5,395.5C 458.94,395.519 457.44,395.852 456,396.5C 454.667,395.167 453.333,393.833 452,392.5C 450.535,393.33 449.035,393.496 447.5,393C 445.887,389.88 443.553,387.713 440.5,386.5C 439.391,385.71 438.058,385.21 436.5,385C 434.644,380.33 431.81,379.497 428,382.5C 424.428,380.619 422.428,377.619 422,373.5C 420.028,372.695 418.528,371.361 417.5,369.5C 416.914,369.709 416.414,370.043 416,370.5C 413.325,367.609 410.158,365.443 406.5,364C 404.746,361.138 403.079,358.305 401.5,355.5C 399.149,354.287 397.316,354.953 396,357.5C 393.682,350.674 389.015,348.341 382,350.5C 376.506,345.954 373.172,347.288 372,354.5C 369.77,356.805 367.27,357.138 364.5,355.5C 362.311,355.594 360.311,356.261 358.5,357.5C 354.159,355.607 350.826,356.774 348.5,361C 346.866,361.494 345.199,361.66 343.5,361.5C 342.748,364.09 341.748,366.59 340.5,369C 342.947,375.046 340.947,377.88 334.5,377.5C 335.263,380.141 335.43,382.808 335,385.5C 332.733,386.289 330.4,386.956 328,387.5C 323.025,379.09 315.525,374.923 305.5,375C 303.873,372.246 302.373,369.412 301,366.5C 300.626,367.416 300.126,368.25 299.5,369C 296.895,370.021 294.228,370.855 291.5,371.5C 285.604,368.355 279.604,366.188 273.5,365C 271.369,363.143 270.869,360.977 272,358.5C 269.667,357.167 267.333,355.833 265,354.5C 262.769,355.547 260.602,356.381 258.5,357C 255.99,350.147 252.823,343.647 249,337.5C 246.649,336.286 244.149,335.452 241.5,335C 239.825,329.681 236.992,325.181 233,321.5C 234.695,313.425 231.529,310.425 223.5,312.5C 220.717,309.658 221.05,307.158 224.5,305C 226.441,303.097 228.774,302.264 231.5,302.5C 230.525,296.916 231.858,292.083 235.5,288C 233.456,287.952 231.456,288.452 229.5,289.5C 229.167,289.167 228.833,288.833 228.5,288.5C 231.747,280.09 236.747,272.923 243.5,267C 241.644,262.499 241.644,258.166 243.5,254C 242.62,252.644 242.286,251.144 242.5,249.5C 238.17,250.332 234.004,251.665 230,253.5C 229.333,252.833 228.667,252.167 228,251.5C 227.899,246.054 227.232,240.721 226,235.5C 225.828,240.202 225.328,244.868 224.5,249.5C 221.021,251.812 218.021,254.646 215.5,258C 212.628,258.315 209.795,258.815 207,259.5C 202.789,254.345 201.622,248.512 203.5,242C 202.01,235.669 199.677,229.835 196.5,224.5C 191.314,222.076 186.647,218.909 182.5,215C 183.942,211.872 183.442,209.038 181,206.5C 178.587,204.591 176.753,202.257 175.5,199.5C 173.929,198.691 172.262,198.357 170.5,198.5C 170.56,194.515 168.56,192.848 164.5,193.5C 164.799,188.786 162.799,187.12 158.5,188.5C 157.571,187.311 157.238,185.978 157.5,184.5C 156.167,184.5 154.833,184.5 153.5,184.5C 153.301,182.04 152.635,179.707 151.5,177.5C 149.289,176.877 147.289,175.877 145.5,174.5C 146.04,173.252 146.707,172.085 147.5,171C 146.167,170 144.833,169 143.5,168C 143.957,167.586 144.291,167.086 144.5,166.5C 140.438,161.592 141.438,157.925 147.5,155.5C 149.747,156.374 152.08,156.708 154.5,156.5C 154.264,153.774 155.097,151.441 157,149.5C 159.687,145.817 162.687,142.483 166,139.5C 165.04,136.755 166.207,135.255 169.5,135C 170.743,133.846 171.743,132.512 172.5,131C 171.158,128.985 170.658,126.818 171,124.5C 173.25,123.292 175.417,121.959 177.5,120.5C 177.708,113.782 181.041,110.949 187.5,112C 189.833,114.333 192.167,116.667 194.5,119C 196.345,118.217 198.345,117.884 200.5,118C 202,119.5 203.5,121 205,122.5C 206.388,121.446 207.888,121.28 209.5,122C 215.196,127.713 221.863,131.713 229.5,134C 231.439,139.138 234.105,143.972 237.5,148.5C 239.423,149.308 241.423,149.808 243.5,150C 250.58,157 253.913,155.833 253.5,146.5C 258.302,145.876 262.302,143.709 265.5,140C 262.999,135.924 263.666,132.257 267.5,129C 271.494,128.14 275.161,126.64 278.5,124.5C 278.336,121.813 278.503,119.146 279,116.5C 281.289,113.271 283.289,109.937 285,106.5C 290.349,108.053 295.016,110.719 299,114.5C 298.402,117.161 298.568,119.827 299.5,122.5C 301.106,124.512 302.273,126.845 303,129.5C 307.709,136.417 311.209,135.751 313.5,127.5C 313.125,125.541 312.459,123.707 311.5,122C 314.818,117.185 318.485,112.685 322.5,108.5C 328.835,113.337 334.668,118.67 340,124.5C 343.118,129.286 346.618,133.786 350.5,138C 354.641,140.576 358.641,143.41 362.5,146.5C 365.88,144.691 366.88,142.025 365.5,138.5C 367.891,133.809 368.558,128.976 367.5,124C 369.967,117.531 373.967,112.198 379.5,108C 385.582,105.188 391.916,103.854 398.5,104C 399.237,107.022 398.904,110.022 397.5,113C 399.357,115.904 402.024,117.571 405.5,118C 409.065,123.625 412.398,123.291 415.5,117C 422.069,113.766 427.402,109.099 431.5,103C 434.766,100.526 437.266,101.026 439,104.5C 439.333,103.5 439.667,102.5 440,101.5C 443.04,104.966 446.874,106.3 451.5,105.5C 451.406,102.459 452.906,100.793 456,100.5C 456.471,98.7536 457.138,97.087 458,95.5C 461.798,94.359 464.965,92.359 467.5,89.5C 463.165,82.1666 460.998,74.1666 461,65.5C 466.521,67.9806 470.021,66.3139 471.5,60.5C 474.095,58.567 476.428,58.567 478.5,60.5C 479.429,59.3112 479.762,57.9778 479.5,56.5C 485.573,55.6007 490.573,52.7674 494.5,48C 496.833,48.3333 499.167,48.6667 501.5,49C 503.491,47.8415 505.158,46.3415 506.5,44.5C 508.413,45.373 510.247,46.373 512,47.5C 514.384,44.6525 515.55,41.3192 515.5,37.5C 516.873,37.6567 518.207,37.49 519.5,37C 521,34.8333 522.5,32.6667 524,30.5C 527.667,35.1667 531.333,39.8333 535,44.5C 535.667,43.8333 536.333,43.1667 537,42.5C 541.441,46.4056 544.607,51.0723 546.5,56.5C 553.371,57.5224 556.037,61.3557 554.5,68C 554.796,69.8882 555.296,71.7216 556,73.5C 557.785,72.7599 559.618,72.0933 561.5,71.5C 565.22,73.6517 569.22,74.985 573.5,75.5C 576.804,77.5633 579.804,80.0633 582.5,83C 584.631,83.5431 586.631,84.3764 588.5,85.5C 589.035,87.6608 589.868,89.6608 591,91.5C 591.899,89.6316 593.399,88.6316 595.5,88.5C 598.473,88.2873 601.473,88.6206 604.5,89.5C 604.5,87.5 604.5,85.5 604.5,83.5C 610.425,83.8082 616.259,83.4749 622,82.5C 623.441,83.2598 624.941,83.9264 626.5,84.5C 627.768,83.5721 629.101,83.4054 630.5,84C 634.481,87.8198 637.481,92.3198 639.5,97.5C 642.029,98.5989 644.529,99.5989 647,100.5C 647.833,99.6667 648.667,98.8333 649.5,98C 652.167,97.6667 654.833,97.3333 657.5,97C 659.337,95.0475 661.671,94.0475 664.5,94C 666.632,88.5171 669.798,88.0171 674,92.5C 675.494,91.2528 676.994,91.2528 678.5,92.5C 680.149,94.6499 681.982,96.6499 684,98.5C 684.804,97.1955 685.971,96.5288 687.5,96.5C 689.135,97.0463 690.801,97.3796 692.5,97.5C 692.178,99.7224 692.845,101.556 694.5,103C 696.762,104.047 698.929,105.213 701,106.5C 703.803,105.239 705.97,106.072 707.5,109C 705.526,112.803 702.859,115.97 699.5,118.5C 701.18,121.48 700.346,123.48 697,124.5C 695.084,128.849 694.084,133.183 694,137.5C 692.846,138.743 691.512,139.743 690,140.5C 687.595,139.726 685.095,139.226 682.5,139C 681.667,138.167 680.833,137.333 680,136.5C 677.603,141.544 676.77,146.711 677.5,152C 673.831,155.633 673.831,159.466 677.5,163.5C 676.833,164.833 676.167,166.167 675.5,167.5C 678.836,168.24 682.17,168.906 685.5,169.5C 688.149,174.01 690.149,178.843 691.5,184C 690.547,185.955 689.213,187.622 687.5,189C 691.236,190.216 692.236,192.549 690.5,196C 691.601,198.035 692.268,200.202 692.5,202.5C 691.603,206.098 690.603,209.765 689.5,213.5C 691.123,214.476 692.457,213.976 693.5,212C 697.934,210.622 701.434,211.788 704,215.5C 708.478,214.494 712.978,214.494 717.5,215.5C 717.025,218.323 718.025,220.323 720.5,221.5C 722.397,221.272 723.73,220.272 724.5,218.5C 727.548,219.346 730.548,220.346 733.5,221.5C 735.68,226.329 734.347,229.662 729.5,231.5C 728.167,232.833 728.167,234.167 729.5,235.5C 732.228,236.145 734.895,236.979 737.5,238C 742.882,242.289 748.549,246.122 754.5,249.5C 756.793,247.77 759.293,246.437 762,245.5C 767.88,250.525 770.714,256.858 770.5,264.5 Z"/>
                        </g>
                        <g id="red_river_delta_and_north_east_coast" class="regions">
                            <path style="opacity:0.998" fill="#2177b3"
                                  d="M 795.5,310.5 C 798.875,309.788 802.209,309.288 805.5,309C 801.835,310.668 799.668,313.501 799,317.5C 796.5,320 794,322.5 791.5,325C 790.207,325.49 788.873,325.657 787.5,325.5C 787.719,326.675 787.386,327.675 786.5,328.5C 779.872,332.635 773.872,337.468 768.5,343C 764.709,344.161 760.876,344.661 757,344.5C 754.071,345.718 751.571,347.551 749.5,350C 744.061,352.092 738.728,351.925 733.5,349.5C 727.86,350.101 722.193,350.268 716.5,350C 719.454,354.088 718.287,356.255 713,356.5C 711.969,354.579 710.469,354.579 708.5,356.5C 709.792,358.667 710.625,361 711,363.5C 712.685,365.017 714.185,366.684 715.5,368.5C 709.394,372.44 705.727,370.94 704.5,364C 703.167,363.333 701.833,363.333 700.5,364C 701.833,365.333 703.167,366.667 704.5,368C 701.629,368.118 698.962,368.784 696.5,370C 698.833,373 701.167,376 703.5,379C 702.897,380.825 702.23,382.659 701.5,384.5C 700.354,383.855 699.354,383.022 698.5,382C 697.5,381.333 696.5,381.333 695.5,382C 692.203,384.295 689.203,386.962 686.5,390C 684.975,391.009 683.308,391.509 681.5,391.5C 681.657,392.873 681.49,394.207 681,395.5C 678.965,397.24 677.131,399.074 675.5,401C 678.767,408.742 679.1,416.576 676.5,424.5C 676.936,427.179 677.436,429.845 678,432.5C 678.654,431.304 679.154,431.304 679.5,432.5C 678.512,435.45 677.679,438.45 677,441.5C 676.333,440.833 675.667,440.167 675,439.5C 674,441.167 673,442.833 672,444.5C 671.581,443.328 670.915,442.328 670,441.5C 665.458,443.845 660.625,445.345 655.5,446C 653.004,447.08 650.67,448.414 648.5,450C 640.289,459.209 632.456,468.709 625,478.5C 624.311,477.643 623.478,476.977 622.5,476.5C 619.5,478.5 616.5,480.5 613.5,482.5C 612.069,479.961 610.403,477.628 608.5,475.5C 611.747,471.847 614.08,467.514 615.5,462.5C 610.526,462.901 605.526,462.401 600.5,461C 599.167,459.667 597.833,458.333 596.5,457C 589.372,452.86 582.039,449.193 574.5,446C 570.395,442.806 566.728,439.14 563.5,435C 560.576,432.25 557.242,430.083 553.5,428.5C 552.544,426.925 551.877,425.258 551.5,423.5C 554.607,423.351 557.607,423.851 560.5,425C 562.833,426.833 565.167,428.667 567.5,430.5C 569.053,429.561 570.387,428.394 571.5,427C 569.831,423.982 568.164,420.982 566.5,418C 569.232,417.846 571.898,418.346 574.5,419.5C 575.298,419.043 575.631,418.376 575.5,417.5C 575.5,416.5 575.5,415.5 575.5,414.5C 577.099,414.768 578.432,414.434 579.5,413.5C 579.783,412.711 580.283,412.044 581,411.5C 582.484,415.488 585.317,417.154 589.5,416.5C 589.162,414.146 588.662,411.813 588,409.5C 585.743,407.954 583.576,406.288 581.5,404.5C 579.935,401.038 578.102,397.705 576,394.5C 574.301,393.594 572.467,393.261 570.5,393.5C 569.241,390.634 568.241,387.634 567.5,384.5C 568.991,381.459 568.157,379.126 565,377.5C 564.9,373.798 564.067,370.298 562.5,367C 562.645,366.228 562.978,365.561 563.5,365C 561.593,363.878 559.593,363.045 557.5,362.5C 557.167,362.5 556.833,362.5 556.5,362.5C 555.952,360.606 554.952,358.94 553.5,357.5C 554.747,355.677 555.414,353.677 555.5,351.5C 552.482,351.665 549.482,351.498 546.5,351C 544.623,348.894 542.29,347.561 539.5,347C 537.099,344.057 534.599,341.223 532,338.5C 528.249,341.474 524.915,341.141 522,337.5C 522.329,334.299 523.162,331.133 524.5,328C 519.859,323.086 520.525,319.253 526.5,316.5C 527.5,313.167 528.5,309.834 529.5,306.5C 530.333,306.167 531.167,305.833 532,305.5C 534.086,306.418 536.253,307.085 538.5,307.5C 538.815,305.774 538.981,304.107 539,302.5C 536.478,299.978 533.978,297.478 531.5,295C 532.409,293.211 532.576,291.377 532,289.5C 530.249,288.826 528.583,288.493 527,288.5C 526.134,284.736 524.967,281.069 523.5,277.5C 528.002,273.567 532.502,273.567 537,277.5C 540.364,275.545 543.864,273.879 547.5,272.5C 548.186,269.002 550.186,267.835 553.5,269C 557.391,273.965 561.391,278.799 565.5,283.5C 569.844,284.382 573.511,286.382 576.5,289.5C 577.015,291.225 577.682,292.892 578.5,294.5C 581.383,294.872 584.383,294.872 587.5,294.5C 587.372,296.655 587.872,298.655 589,300.5C 591.919,301.187 594.752,302.187 597.5,303.5C 598.051,305.413 598.218,307.413 598,309.5C 601.503,313.712 603.836,313.045 605,307.5C 608.64,310.792 612.807,313.292 617.5,315C 619.367,315.711 620.867,315.211 622,313.5C 625.852,318.215 630.685,320.382 636.5,320C 637.429,322.391 638.929,324.225 641,325.5C 642.442,324.788 643.275,323.621 643.5,322C 642.591,320.211 642.424,318.377 643,316.5C 644.062,317.899 645.395,318.899 647,319.5C 649.853,317.308 652.686,315.142 655.5,313C 657.833,312.833 660.167,312.667 662.5,312.5C 666.715,311.982 669.715,313.482 671.5,317C 681.632,319.692 691.965,321.358 702.5,322C 703.147,320.391 703.98,318.891 705,317.5C 709.134,318.196 713.3,318.863 717.5,319.5C 719.192,317.641 720.692,315.641 722,313.5C 722.769,310.901 722.602,308.401 721.5,306C 723.377,304.815 725.377,303.815 727.5,303C 730.458,300.176 733.458,297.342 736.5,294.5C 741.741,295.11 746.908,294.443 752,292.5C 754.337,294.224 755.837,293.724 756.5,291C 755.697,288.256 754.697,285.589 753.5,283C 753.833,282 754.167,281 754.5,280C 753.437,277.102 751.77,274.602 749.5,272.5C 752.068,270.283 755.068,269.116 758.5,269C 759.167,268 759.833,267 760.5,266C 763.854,265.545 767.187,265.045 770.5,264.5C 772.5,263.024 774.167,261.191 775.5,259C 777.746,257.961 779.913,256.794 782,255.5C 783.333,256.833 784.667,258.167 786,259.5C 786.595,260.899 786.428,262.232 785.5,263.5C 788.495,266.174 791.162,265.841 793.5,262.5C 797.799,263.542 802.132,263.709 806.5,263C 811.503,259.998 816.836,257.831 822.5,256.5C 824.059,257.074 825.559,257.74 827,258.5C 827.308,257.692 827.808,257.025 828.5,256.5C 832.156,261.664 836.156,266.497 840.5,271C 842.81,271.497 845.143,271.663 847.5,271.5C 847.338,273.527 847.505,275.527 848,277.5C 858.103,279.014 857.936,280.847 847.5,283C 845.291,284.873 843.458,287.04 842,289.5C 841.776,286.89 842.276,284.39 843.5,282C 840.593,282.736 837.593,283.07 834.5,283C 835.5,282 836.5,281 837.5,280C 835.741,278.992 834.574,277.492 834,275.5C 833.187,278.982 831.521,279.315 829,276.5C 828.581,277.672 827.915,278.672 827,279.5C 825.89,277.963 824.39,277.297 822.5,277.5C 820.457,282.588 818.124,287.588 815.5,292.5C 813.167,291.833 810.833,291.167 808.5,290.5C 807.571,291.689 807.238,293.022 807.5,294.5C 806.022,294.238 804.689,294.571 803.5,295.5C 801.436,298.943 799.936,302.61 799,306.5C 795.71,305.355 792.71,303.688 790,301.5C 788.812,302.563 788.312,303.897 788.5,305.5C 785.404,305.065 782.404,304.565 779.5,304C 784.328,307.329 788.328,311.495 791.5,316.5C 793.332,315.752 794.999,314.752 796.5,313.5C 794.565,312.787 794.232,311.787 795.5,310.5 Z M 771.5,303.5 C 774.301,304.735 776.968,306.235 779.5,308C 776.733,308.869 774.066,310.036 771.5,311.5C 770.271,308.801 770.271,306.135 771.5,303.5 Z M 778.5,311.5 C 779.622,313.288 779.789,315.288 779,317.5C 777.5,319 776,320.5 774.5,322C 775.328,322.915 776.328,323.581 777.5,324C 776.421,324.956 775.255,325.789 774,326.5C 773.64,324.392 772.973,322.392 772,320.5C 771.667,320.833 771.333,321.167 771,321.5C 770.333,319.833 770.333,318.167 771,316.5C 773.175,315.745 775.341,314.912 777.5,314C 778.252,313.329 778.586,312.496 778.5,311.5 Z"/>
                            <path style="opacity:0.946" fill="#1e77b4"
                                  d="M 847.5,289.5 C 848.239,289.369 848.906,289.536 849.5,290C 846.681,292.575 843.681,294.908 840.5,297C 836.833,297.667 833.167,297.667 829.5,297C 828.707,295.915 828.04,294.748 827.5,293.5C 834.277,292.063 840.943,290.73 847.5,289.5 Z"/>
                            <path style="opacity:0.945" fill="#1e77b4"
                                  d="M 823.5,294.5 C 824.376,294.369 825.043,294.702 825.5,295.5C 821.695,302.902 815.695,305.735 807.5,304C 813.062,301.059 818.395,297.892 823.5,294.5 Z"/>
                            <path style="opacity:0.914" fill="#1f77b4"
                                  d="M 795.5,310.5 C 790.635,311.194 790.135,309.528 794,305.5C 797.611,306.651 798.111,308.318 795.5,310.5 Z"/>
                            <path style="opacity:0.907" fill="#1f77b4"
                                  d="M 842.5,308.5 C 843.461,310.265 843.795,312.265 843.5,314.5C 836.002,313.372 835.669,311.372 842.5,308.5 Z"/>
                            <path style="opacity:0.949" fill="#1f77b4"
                                  d="M 771.5,351.5 C 774.377,349.479 777.21,347.146 780,344.5C 783.126,343.461 785.959,341.294 788.5,338C 778.948,342.055 778.282,340.888 786.5,334.5C 787.824,332.172 789.157,329.839 790.5,327.5C 795.206,325.426 797.039,326.759 796,331.5C 801.449,325.708 805.449,319.042 808,311.5C 807.913,317.609 806.913,323.609 805,329.5C 804.803,324.822 803.803,324.488 802,328.5C 799.004,336.154 796.504,343.654 794.5,351C 789.381,354.616 786.047,359.45 784.5,365.5C 783.295,367.138 781.962,367.471 780.5,366.5C 781.704,363.261 783.038,360.094 784.5,357C 780.945,355.741 777.278,355.741 773.5,357C 773.957,357.414 774.291,357.914 774.5,358.5C 772.851,359.648 771.351,360.981 770,362.5C 768.989,361.663 767.822,361.33 766.5,361.5C 766.55,358.802 765.55,356.636 763.5,355C 766.309,353.907 768.976,352.74 771.5,351.5 Z M 794.5,332.5 C 795.043,332.56 795.376,332.893 795.5,333.5C 794.568,335.795 793.735,338.129 793,340.5C 790.754,337.23 791.254,334.563 794.5,332.5 Z"/>
                            <path style="opacity:0.935" fill="#1f77b4"
                                  d="M 825.5,335.5 C 827.312,335.771 828.978,336.438 830.5,337.5C 828.527,340.64 826.36,343.64 824,346.5C 822.978,345.646 822.145,344.646 821.5,343.5C 822.86,340.78 824.193,338.114 825.5,335.5 Z"/>
                            <path style="opacity:0.964" fill="#1f77b4"
                                  d="M 815.5,339.5 C 816.649,339.791 817.316,340.624 817.5,342C 819.204,348.514 817.704,349.014 813,343.5C 812.517,342.552 812.351,341.552 812.5,340.5C 813.791,340.737 814.791,340.404 815.5,339.5 Z"/>
                            <path style="opacity:0.957" fill="#1f77b4"
                                  d="M 771.5,351.5 C 769.051,352.057 766.718,352.057 764.5,351.5C 767.28,348.172 770.613,346.006 774.5,345C 773.086,346.993 772.086,349.16 771.5,351.5 Z"/>
                            <path style="opacity:0.963" fill="#1f77b4"
                                  d="M 719.5,358.5 C 721.017,358.511 722.184,359.177 723,360.5C 725.719,359.556 728.552,359.223 731.5,359.5C 731.286,361.144 731.62,362.644 732.5,364C 733.449,364.617 734.282,364.451 735,363.5C 736.848,366.041 739.348,367.041 742.5,366.5C 742.599,369.673 741.932,372.673 740.5,375.5C 739.614,374.675 739.281,373.675 739.5,372.5C 737.076,372.192 734.743,372.526 732.5,373.5C 733.106,375.709 733.773,377.876 734.5,380C 731.251,379.404 727.917,378.737 724.5,378C 721.71,374.254 719.043,370.421 716.5,366.5C 717.508,363.805 718.508,361.138 719.5,358.5 Z"/>
                            <path style="opacity:0.893" fill="#1e77b4"
                                  d="M 768.5,363.5 C 769.833,363.5 771.167,363.5 772.5,363.5C 772.519,370.531 773.019,370.864 774,364.5C 775.544,366.468 776.711,368.635 777.5,371C 776.128,371.402 774.795,371.902 773.5,372.5C 771.018,370.723 768.351,369.223 765.5,368C 766.222,366.249 767.222,364.749 768.5,363.5 Z"/>
                            <path style="opacity:1" fill="#9c7b5b"
                                  d="M 556.5,362.5 C 556.833,362.5 557.167,362.5 557.5,362.5C 556.928,363.973 556.095,365.307 555,366.5C 554.652,364.86 555.152,363.527 556.5,362.5 Z"/>
                            <path style="opacity:1" fill="#ac7c4d"
                                  d="M 579.5,413.5 C 578.432,414.434 577.099,414.768 575.5,414.5C 575.5,415.5 575.5,416.5 575.5,417.5C 574.566,416.432 574.232,415.099 574.5,413.5C 576.167,413.5 577.833,413.5 579.5,413.5 Z"/>

                        </g>
                        <g id="north_central" class="regions">
                            <path style="opacity:0.993" fill="#2c9f2b"
                                  d="M 551.5,423.5 C 551.877,425.258 552.544,426.925 553.5,428.5C 557.242,430.083 560.576,432.25 563.5,435C 566.728,439.14 570.395,442.806 574.5,446C 582.039,449.193 589.372,452.86 596.5,457C 597.833,458.333 599.167,459.667 600.5,461C 605.526,462.401 610.526,462.901 615.5,462.5C 614.08,467.514 611.747,471.847 608.5,475.5C 606.062,477.434 603.729,479.6 601.5,482C 601.905,482.945 602.572,483.612 603.5,484C 601.873,486.754 600.373,489.588 599,492.5C 599.403,498.353 597.57,503.353 593.5,507.5C 590.913,507.183 589.08,508.517 588,511.5C 584.625,521.287 583.458,531.287 584.5,541.5C 583.781,543.728 582.448,545.561 580.5,547C 581.286,549.96 582.452,552.794 584,555.5C 584.667,556.833 584.667,558.167 584,559.5C 581.558,562.048 579.892,565.048 579,568.5C 577.324,569.061 575.991,570.061 575,571.5C 574.457,576.243 574.457,580.91 575,585.5C 572.14,588.017 568.974,588.851 565.5,588C 562.483,591.451 560.816,595.451 560.5,600C 561.739,603.364 562.406,606.864 562.5,610.5C 566.281,610.974 569.448,612.641 572,615.5C 572.891,620.952 575.557,625.285 580,628.5C 582.419,642.667 588.086,655.334 597,666.5C 598,665.167 599,665.167 600,666.5C 605.224,676.057 612.224,684.057 621,690.5C 622.388,689.446 623.888,689.28 625.5,690C 629.03,692.596 632.697,694.929 636.5,697C 640.527,701.027 644.527,705.027 648.5,709C 651.688,711.238 654.354,710.738 656.5,707.5C 659.506,708.551 659.839,710.551 657.5,713.5C 659.731,718.294 662.231,722.961 665,727.5C 666.816,728.329 668.649,729.163 670.5,730C 666.627,733.211 663.46,737.044 661,741.5C 660.733,749.708 662.733,757.375 667,764.5C 676.853,782.69 689.353,798.857 704.5,813C 715.812,821.989 727.479,830.489 739.5,838.5C 739.22,845.734 741.387,852.067 746,857.5C 762.326,873.835 779.826,888.668 798.5,902C 812.23,909.384 824.563,918.718 835.5,930C 839.174,931.019 842.341,932.852 845,935.5C 846.855,934.337 848.189,932.67 849,930.5C 851.016,936.703 854.183,942.203 858.5,947C 862.528,947.392 866.528,947.892 870.5,948.5C 870.842,949.338 871.508,949.672 872.5,949.5C 872.548,950.507 871.548,950.84 869.5,950.5C 864.693,952.62 859.526,953.954 854,954.5C 850.446,954.039 847.28,952.706 844.5,950.5C 843.059,951.304 841.559,951.971 840,952.5C 837.775,950.722 835.275,950.222 832.5,951C 830.939,954.686 829.772,958.519 829,962.5C 826.418,964.228 824.918,966.561 824.5,969.5C 822.94,969.481 821.44,969.148 820,968.5C 818.414,970.044 816.58,971.211 814.5,972C 814.047,974.693 812.547,976.527 810,977.5C 806.833,975.667 803.667,973.833 800.5,972C 799.809,970.933 799.309,969.766 799,968.5C 797.559,969.26 796.059,969.926 794.5,970.5C 791.755,976.785 788.255,977.118 784,971.5C 782.89,973.037 781.39,973.703 779.5,973.5C 778.248,971.661 778.248,969.828 779.5,968C 779,967.5 778.5,967 778,966.5C 773.77,967.096 769.77,968.43 766,970.5C 762.492,967.325 759.325,963.825 756.5,960C 753.289,958.847 749.956,958.18 746.5,958C 743.786,955.57 742.119,952.57 741.5,949C 742.769,946.861 742.769,944.695 741.5,942.5C 739.833,941.333 738.167,940.167 736.5,939C 731.175,939.169 725.841,939.336 720.5,939.5C 720.662,937.473 720.495,935.473 720,933.5C 715.914,930.816 712.581,927.482 710,923.5C 710.227,921.426 710.061,919.426 709.5,917.5C 712.329,913.577 711.662,910.91 707.5,909.5C 705.527,912.246 704.027,915.246 703,918.5C 702,919.833 701,919.833 700,918.5C 699.667,919.833 699.333,921.167 699,922.5C 697.045,923.453 695.378,924.787 694,926.5C 693.691,925.234 693.191,924.067 692.5,923C 689.804,922.235 687.304,921.068 685,919.5C 685.043,915.989 684.21,912.489 682.5,909C 683.029,907.441 683.696,905.941 684.5,904.5C 681.606,902.179 678.273,901.012 674.5,901C 674.957,900.586 675.291,900.086 675.5,899.5C 672.941,897.048 671.441,894.048 671,890.5C 670.831,882.812 670.331,875.145 669.5,867.5C 666.666,865.559 665.832,862.893 667,859.5C 668.011,858.663 669.178,858.33 670.5,858.5C 670.66,856.801 670.494,855.134 670,853.5C 669.311,854.357 668.478,855.023 667.5,855.5C 663.944,854.26 660.444,852.927 657,851.5C 655.877,848.751 654.377,846.251 652.5,844C 653.517,842.951 653.684,841.784 653,840.5C 649.024,835.023 644.858,829.69 640.5,824.5C 641.5,823.667 642.5,822.833 643.5,822C 642.036,820.136 641.036,817.969 640.5,815.5C 639.071,819.147 636.404,820.647 632.5,820C 626.016,815.18 619.849,810.013 614,804.5C 605.523,793.722 596.69,783.222 587.5,773C 583.818,769.451 579.485,767.618 574.5,767.5C 574.579,764.729 574.079,762.063 573,759.5C 567.886,755.942 565.553,751.275 566,745.5C 556.528,741.399 555.028,735.232 561.5,727C 559.679,724.863 557.346,724.03 554.5,724.5C 554.492,721.455 554.159,718.455 553.5,715.5C 552.167,715.5 550.833,715.5 549.5,715.5C 546.656,711.167 544.656,706.333 543.5,701C 542.5,700.333 541.5,700.333 540.5,701C 538.324,702.677 536.324,704.511 534.5,706.5C 530.588,704.628 526.755,702.628 523,700.5C 523.207,698.249 523.373,695.915 523.5,693.5C 520.753,693.813 518.086,693.48 515.5,692.5C 514.488,688.981 512.155,686.814 508.5,686C 506.924,683.049 506.257,679.883 506.5,676.5C 502.535,675.061 499.202,672.561 496.5,669C 497.138,662.284 498.638,655.784 501,649.5C 502.333,648.167 503.667,646.833 505,645.5C 505.414,645.957 505.914,646.291 506.5,646.5C 507.583,645.635 507.749,644.635 507,643.5C 504.173,641.506 501.673,639.172 499.5,636.5C 496.681,636.742 493.681,636.742 490.5,636.5C 490.5,635.5 490.5,634.5 490.5,633.5C 488.334,633.421 486.334,632.754 484.5,631.5C 482.218,632.223 479.884,632.557 477.5,632.5C 477.859,630.234 477.192,628.401 475.5,627C 469.708,627.093 464.208,626.259 459,624.5C 458.439,625.022 457.772,625.355 457,625.5C 453.783,624.226 451.116,622.226 449,619.5C 448.228,619.645 447.561,619.978 447,620.5C 443.464,615.788 438.964,612.454 433.5,610.5C 432.694,607.554 431.361,604.888 429.5,602.5C 427.493,601.829 425.66,600.829 424,599.5C 422.237,599.975 420.57,600.642 419,601.5C 416.309,598.147 413.642,594.814 411,591.5C 406.484,590.493 402.651,588.327 399.5,585C 395.384,586.423 392.051,585.423 389.5,582C 389.957,581.586 390.291,581.086 390.5,580.5C 388.161,574.782 383.827,571.948 377.5,572C 376.5,571 375.5,570 374.5,569C 366.66,570.919 360.326,568.586 355.5,562C 351.308,561.995 349.642,560.161 350.5,556.5C 355.45,554.71 359.117,551.543 361.5,547C 365.451,546.464 368.951,544.964 372,542.5C 372.333,542.833 372.667,543.167 373,543.5C 374.145,540.568 374.978,537.568 375.5,534.5C 376.552,534.649 377.552,534.483 378.5,534C 376.327,532.135 375.993,529.969 377.5,527.5C 374.755,525.014 372.755,522.014 371.5,518.5C 371.913,515.318 372.746,512.318 374,509.5C 375.594,511.297 377.594,512.297 380,512.5C 384.523,510.24 389.19,508.24 394,506.5C 396.405,507.274 398.905,507.774 401.5,508C 402.931,508.465 404.097,509.299 405,510.5C 408.704,509.088 412.538,508.088 416.5,507.5C 417.847,512.522 421.181,515.189 426.5,515.5C 426.977,516.478 427.643,517.311 428.5,518C 433.154,518.882 437.487,518.049 441.5,515.5C 443.578,513.572 444.245,511.405 443.5,509C 449.308,502.316 456.308,498.15 464.5,496.5C 464.24,492.652 464.906,488.985 466.5,485.5C 465.669,483.527 465.502,481.527 466,479.5C 471.549,476.445 475.216,471.778 477,465.5C 478.154,464.257 479.488,463.257 481,462.5C 481.982,461.241 482.315,459.908 482,458.5C 479.338,456.506 476.671,454.506 474,452.5C 471.88,453.459 469.713,453.626 467.5,453C 462.874,448.188 457.207,445.855 450.5,446C 446.593,443.916 442.593,442.083 438.5,440.5C 437.732,434.866 437.899,429.2 439,423.5C 441.921,421.623 444.754,419.623 447.5,417.5C 445.034,410.163 442.034,410.163 438.5,417.5C 436.041,418.326 433.541,418.993 431,419.5C 425.93,425.218 420.263,426.218 414,422.5C 413.667,420.5 413.333,418.5 413,416.5C 409.189,414.117 408.689,411.283 411.5,408C 419.682,405.131 426.016,400.131 430.5,393C 435.659,393.434 438.992,391.267 440.5,386.5C 443.553,387.713 445.887,389.88 447.5,393C 449.035,393.496 450.535,393.33 452,392.5C 453.333,393.833 454.667,395.167 456,396.5C 457.44,395.852 458.94,395.519 460.5,395.5C 460.162,392.843 460.829,390.51 462.5,388.5C 466.021,385.603 470.021,384.437 474.5,385C 479.167,388.333 483.167,392.333 486.5,397C 489.856,397.215 493.189,397.215 496.5,397C 502.104,400.163 507.77,402.997 513.5,405.5C 515.312,408.917 516.979,412.25 518.5,415.5C 523.41,418.202 528.577,420.535 534,422.5C 534.739,421.426 535.739,420.759 537,420.5C 541.534,422.921 546.367,423.921 551.5,423.5 Z M 851.5,944.5 C 852.627,945.122 853.627,945.955 854.5,947C 852.511,947.519 851.511,946.686 851.5,944.5 Z"/>
                        </g>
                        <g id="south_central_coast" class="regions">
                            <path style="opacity:0.828" fill="#d52627"
                                  d="M 1264.5,835.5 C 1277.91,835.683 1278.57,838.183 1266.5,843C 1263.81,843.43 1261.14,843.263 1258.5,842.5C 1258.42,841.07 1258.75,839.736 1259.5,838.5C 1261.36,837.675 1263.03,836.675 1264.5,835.5 Z"/>

                            <path style="opacity:0.785" fill="#d52627"
                                  d="M 1353.5,849.5 C 1362.37,850.6 1368.04,855.433 1370.5,864C 1367.03,861.863 1364.03,858.863 1361.5,855C 1357.8,855.23 1354.13,855.563 1350.5,856C 1349.5,855 1348.5,854 1347.5,853C 1349.43,851.541 1351.43,850.375 1353.5,849.5 Z"/>

                            <path style="opacity:0.764" fill="#d52627"
                                  d="M 1249.5,881.5 C 1251.2,881.34 1252.87,881.506 1254.5,882C 1256.18,887.673 1254.18,889.506 1248.5,887.5C 1248.33,885.379 1248.66,883.379 1249.5,881.5 Z"/>

                            <path style="opacity:0.781" fill="#d62627"
                                  d="M 1289.5,901.5 C 1293.87,901.751 1296.04,904.084 1296,908.5C 1298.18,909.346 1299.68,910.846 1300.5,913C 1299.46,916.265 1297.79,919.098 1295.5,921.5C 1294.28,921.113 1293.61,920.28 1293.5,919C 1296.49,914.13 1295.49,910.297 1290.5,907.5C 1289.65,905.591 1289.32,903.591 1289.5,901.5 Z"/>

                            <path style="opacity:0.792" fill="#d52626"
                                  d="M 1284.5,903.5 C 1285.98,903.238 1287.31,903.571 1288.5,904.5C 1287.85,906.115 1287.35,907.782 1287,909.5C 1286.44,908.978 1285.77,908.645 1285,908.5C 1283.61,909.613 1282.44,910.947 1281.5,912.5C 1276.6,910.018 1276.6,908.185 1281.5,907C 1282.83,906.333 1282.83,905.667 1281.5,905C 1282.74,904.768 1283.74,904.268 1284.5,903.5 Z"/>

                            <path style="opacity:0.805" fill="#d52627"
                                  d="M 1274.5,918.5 C 1276.88,911.711 1279.21,911.878 1281.5,919C 1281.28,920.621 1280.44,921.788 1279,922.5C 1276.99,921.656 1275.49,920.323 1274.5,918.5 Z"/>

                            <path style="opacity:0.758" fill="#d52627"
                                  d="M 1274.5,918.5 C 1270.6,924.116 1268.76,923.449 1269,916.5C 1270.81,917.244 1272.65,917.911 1274.5,918.5 Z"/>

                            <path style="opacity:0.854" fill="#d52627"
                                  d="M 1322.5,929.5 C 1328.2,928.557 1333.2,929.89 1337.5,933.5C 1334.93,935.713 1332.09,936.046 1329,934.5C 1326.13,935.401 1323.3,936.401 1320.5,937.5C 1319.64,936.264 1318.98,934.931 1318.5,933.5C 1319.87,932.16 1321.2,930.827 1322.5,929.5 Z"/>

                            <path style="opacity:0.85" fill="#d52627"
                                  d="M 1292.5,937.5 C 1298.18,936.339 1302.18,938.339 1304.5,943.5C 1301.1,951.189 1296.1,952.355 1289.5,947C 1291.74,946.023 1294.07,945.523 1296.5,945.5C 1296.5,944.5 1296.5,943.5 1296.5,942.5C 1292.82,942.335 1289.15,942.501 1285.5,943C 1284.83,943.667 1284.17,944.333 1283.5,945C 1285,946.252 1286.67,947.252 1288.5,948C 1284.68,952.423 1280.01,954.257 1274.5,953.5C 1272.09,950.869 1272.09,948.369 1274.5,946C 1277.5,943.667 1280.5,941.333 1283.5,939C 1286.69,938.819 1289.69,938.319 1292.5,937.5 Z"/>

                            <path style="opacity:0.251" fill="#c93025"
                                  d="M 872.5,949.5 C 871.508,949.672 870.842,949.338 870.5,948.5C 872.838,946.989 873.504,947.323 872.5,949.5 Z"/>
                            <path style="opacity:0.988" fill="#d52728"
                                  d="M 869.5,950.5 C 866.895,952.337 864.728,954.67 863,957.5C 862.333,958.833 862.333,960.167 863,961.5C 865.654,965.407 868.821,966.074 872.5,963.5C 871.833,962.833 871.167,962.167 870.5,961.5C 871.711,959.578 873.044,957.745 874.5,956C 877.284,955.8 879.784,956.634 882,958.5C 883.261,958.241 884.261,957.574 885,956.5C 886.292,958.249 887.458,960.082 888.5,962C 884.665,962.707 880.998,963.874 877.5,965.5C 876.617,967.48 876.783,969.48 878,971.5C 881.19,979.906 886.69,986.239 894.5,990.5C 900.429,1006.93 909.095,1021.76 920.5,1035C 923.641,1036.62 926.808,1038.12 930,1039.5C 930.616,1045.06 933.449,1049.06 938.5,1051.5C 940.481,1050.89 940.815,1049.89 939.5,1048.5C 941.743,1047.53 944.076,1047.19 946.5,1047.5C 946.345,1053.02 948.679,1057.19 953.5,1060C 951.558,1062.92 952.225,1065.59 955.5,1068C 956.793,1068.49 958.127,1068.66 959.5,1068.5C 958.719,1073.2 957.052,1077.37 954.5,1081C 957.127,1101.58 964.461,1120.24 976.5,1137C 975.833,1138 975.167,1139 974.5,1140C 975.043,1144.75 976.043,1149.41 977.5,1154C 976.833,1154.67 976.167,1155.33 975.5,1156C 977.197,1159.89 979.03,1163.73 981,1167.5C 980.299,1171.17 980.632,1174.84 982,1178.5C 985.186,1182.87 987.853,1187.54 990,1192.5C 990.687,1194.57 990.52,1196.57 989.5,1198.5C 990.97,1201.27 992.303,1204.11 993.5,1207C 992.507,1209.45 992.34,1211.95 993,1214.5C 995.909,1218.73 997.743,1223.39 998.5,1228.5C 998.023,1229.48 997.357,1230.31 996.5,1231C 999.272,1234.56 1001.27,1238.39 1002.5,1242.5C 1002.2,1247.22 1001.53,1251.89 1000.5,1256.5C 998.618,1255.91 996.785,1255.24 995,1254.5C 994.056,1255.26 993.556,1256.26 993.5,1257.5C 994.753,1261.55 995.253,1265.55 995,1269.5C 996.281,1273.24 998.781,1275.74 1002.5,1277C 1000.82,1278.71 999.158,1280.38 997.5,1282C 999.367,1282.92 1001.37,1283.42 1003.5,1283.5C 1003.07,1284.29 1002.74,1285.13 1002.5,1286C 1003.5,1287.67 1004.5,1289.33 1005.5,1291C 1004.96,1293.4 1004.29,1295.73 1003.5,1298C 1000.62,1298.96 998.121,1298.46 996,1296.5C 995.5,1297 995,1297.5 994.5,1298C 996.022,1299.52 997.522,1301.02 999,1302.5C 1000.15,1301.58 1001.15,1301.58 1002,1302.5C 1002.71,1304.9 1002.54,1307.23 1001.5,1309.5C 1004.96,1313.63 1005.29,1317.97 1002.5,1322.5C 1003.05,1325.1 1003.22,1327.77 1003,1330.5C 1007.76,1340.36 1013.76,1349.36 1021,1357.5C 1022.76,1362.68 1021.26,1366.35 1016.5,1368.5C 1015.9,1367.28 1015.74,1365.95 1016,1364.5C 1013.91,1367.07 1012.08,1369.74 1010.5,1372.5C 1011.89,1377.79 1014.23,1382.62 1017.5,1387C 1021.09,1387.12 1022.76,1388.96 1022.5,1392.5C 1020.15,1392.46 1018.82,1393.62 1018.5,1396C 1019.07,1397.87 1019.73,1399.7 1020.5,1401.5C 1019.61,1402.59 1018.61,1402.59 1017.5,1401.5C 1016.45,1402.88 1015.12,1403.88 1013.5,1404.5C 1010.3,1402.14 1006.97,1399.97 1003.5,1398C 1001.84,1396.56 1001.18,1394.72 1001.5,1392.5C 1003.6,1392.8 1005.6,1392.47 1007.5,1391.5C 1006.1,1388.1 1006.77,1385.1 1009.5,1382.5C 1008.5,1379.83 1007.5,1377.16 1006.5,1374.5C 1002.86,1377.09 1000.02,1380.42 998,1384.5C 994.141,1386.7 991.308,1389.86 989.5,1394C 991.614,1395.5 992.114,1397.33 991,1399.5C 992.261,1396.18 993.928,1395.85 996,1398.5C 996.048,1400.54 995.548,1402.54 994.5,1404.5C 996.207,1407.62 998.707,1409.95 1002,1411.5C 1002.19,1413.9 1002.69,1416.23 1003.5,1418.5C 1005.33,1419.25 1007,1420.25 1008.5,1421.5C 1005.76,1423.02 1003.76,1425.19 1002.5,1428C 998.857,1429.36 996.69,1428.19 996,1424.5C 993.833,1422.33 991.667,1420.17 989.5,1418C 987.926,1417.3 986.593,1417.63 985.5,1419C 990.737,1420.52 992.903,1424.02 992,1429.5C 997.79,1432.03 997.79,1434.36 992,1436.5C 990.741,1439.03 990.741,1441.36 992,1443.5C 992.718,1444.45 993.551,1444.62 994.5,1444C 996.155,1439.87 998.655,1439.37 1002,1442.5C 1002.77,1442.36 1003.44,1442.02 1004,1441.5C 1005.88,1443.53 1007.05,1445.86 1007.5,1448.5C 1005.53,1448.74 1003.7,1448.41 1002,1447.5C 1001.58,1448.67 1000.91,1449.67 1000,1450.5C 997.743,1448.95 995.576,1447.29 993.5,1445.5C 991.215,1447.81 991.215,1449.98 993.5,1452C 990.177,1455.8 989.677,1459.97 992,1464.5C 993.985,1469.49 997.152,1473.49 1001.5,1476.5C 1000.29,1477.87 999.289,1479.37 998.5,1481C 999.791,1483.05 1000.29,1485.22 1000,1487.5C 998.488,1488.26 997.154,1489.26 996,1490.5C 994.705,1488.88 993.205,1487.54 991.5,1486.5C 989.833,1486.83 988.833,1487.83 988.5,1489.5C 990.261,1491.56 990.595,1493.73 989.5,1496C 996.32,1500.86 996.154,1505.36 989,1509.5C 987.851,1512.39 987.351,1515.39 987.5,1518.5C 986.5,1518.5 985.5,1518.5 984.5,1518.5C 983.819,1525.96 980.652,1527.29 975,1522.5C 973.124,1524.12 971.79,1523.79 971,1521.5C 970.349,1523.24 970.515,1524.9 971.5,1526.5C 970.675,1527.39 969.675,1527.72 968.5,1527.5C 968.613,1535.3 968.613,1542.96 968.5,1550.5C 965.736,1551.76 963.403,1553.59 961.5,1556C 959.899,1556.27 958.399,1556.77 957,1557.5C 955.499,1555.42 953.499,1554.08 951,1553.5C 947.855,1554.41 944.688,1555.24 941.5,1556C 937.316,1560.54 934.649,1565.87 933.5,1572C 930.482,1572.5 927.482,1572.33 924.5,1571.5C 922.626,1571.39 921.126,1572.06 920,1573.5C 909.944,1573.05 904.778,1578.05 904.5,1588.5C 900.79,1587.97 897.623,1588.97 895,1591.5C 893.535,1590.67 892.035,1590.5 890.5,1591C 889.092,1594.13 887.759,1597.29 886.5,1600.5C 885.833,1600.17 885.167,1599.83 884.5,1599.5C 883.5,1601.5 882.5,1603.5 881.5,1605.5C 880.155,1604.65 879.155,1603.49 878.5,1602C 876.722,1601.3 874.888,1600.8 873,1600.5C 868.201,1602.56 863.367,1603.73 858.5,1604C 856.291,1605.87 854.458,1608.04 853,1610.5C 851.178,1616.12 849.511,1621.79 848,1627.5C 847.044,1628.58 846.211,1629.75 845.5,1631C 834.695,1626.93 825.362,1629.26 817.5,1638C 814.899,1638.92 812.232,1639.59 809.5,1640C 804.305,1642.79 798.971,1645.29 793.5,1647.5C 793.215,1640.91 791.715,1634.58 789,1628.5C 787.437,1627.27 786.27,1625.77 785.5,1624C 788.908,1621.87 792.075,1619.37 795,1616.5C 794.043,1611.01 793.376,1605.35 793,1599.5C 791.112,1593.94 787.279,1591.1 781.5,1591C 775.839,1588.75 775.339,1585.92 780,1582.5C 780.651,1580.76 780.485,1579.1 779.5,1577.5C 782.14,1573.42 784.306,1569.09 786,1564.5C 787.011,1563.66 788.178,1563.33 789.5,1563.5C 789.055,1558.9 789.722,1554.57 791.5,1550.5C 791.75,1549.08 792.583,1548.08 794,1547.5C 798.815,1552.82 804.648,1554.66 811.5,1553C 812.357,1552.31 813.023,1551.48 813.5,1550.5C 825.233,1548.33 836.566,1549.5 847.5,1554C 848.936,1557.71 850.769,1561.21 853,1564.5C 858.051,1560.78 863.551,1557.95 869.5,1556C 874.301,1552.2 878.801,1548.03 883,1543.5C 883.315,1542.09 882.982,1540.76 882,1539.5C 876.25,1536.38 876.417,1533.21 882.5,1530C 885.259,1529.02 887.259,1529.86 888.5,1532.5C 890.49,1531.13 892.657,1530.13 895,1529.5C 899.414,1530.3 903.914,1530.8 908.5,1531C 909.416,1531.37 910.25,1531.87 911,1532.5C 912.743,1530.68 914.243,1528.68 915.5,1526.5C 913.949,1524.12 912.615,1521.62 911.5,1519C 911.878,1517.37 912.544,1515.87 913.5,1514.5C 917.113,1513.48 920.779,1512.64 924.5,1512C 926.967,1511.2 928.3,1509.54 928.5,1507C 926.539,1504.17 925.205,1501 924.5,1497.5C 922.833,1496.33 921.167,1495.17 919.5,1494C 920.667,1492.83 921.833,1491.67 923,1490.5C 922.801,1480.63 925.301,1471.63 930.5,1463.5C 929.845,1460.34 928.178,1457.84 925.5,1456C 927.529,1453.04 930.195,1450.87 933.5,1449.5C 932.233,1447.63 932.233,1445.8 933.5,1444C 932.667,1443.17 931.833,1442.33 931,1441.5C 928.787,1433.7 927.12,1425.7 926,1417.5C 927.763,1414.98 929.763,1412.65 932,1410.5C 932.414,1410.96 932.914,1411.29 933.5,1411.5C 934.337,1409.49 935.837,1408.49 938,1408.5C 941.296,1409.13 944.13,1410.63 946.5,1413C 947.833,1413.67 949.167,1413.67 950.5,1413C 949.426,1412.26 948.759,1411.26 948.5,1410C 949.697,1407.11 951.03,1404.27 952.5,1401.5C 951.5,1399.83 950.167,1398.5 948.5,1397.5C 949.174,1394.83 950.841,1393.16 953.5,1392.5C 953.946,1390.63 954.279,1388.8 954.5,1387C 956.081,1386.29 957.581,1385.46 959,1384.5C 960.356,1385.38 961.856,1385.71 963.5,1385.5C 963.665,1381.82 963.499,1378.15 963,1374.5C 962.626,1373.58 962.126,1372.75 961.5,1372C 957.459,1371.83 953.459,1371.33 949.5,1370.5C 947.867,1366.03 944.7,1363.69 940,1363.5C 938.374,1361.08 936.874,1358.58 935.5,1356C 932.418,1354.59 929.585,1352.76 927,1350.5C 926.289,1348.63 926.789,1347.13 928.5,1346C 930.65,1344.59 932.984,1343.76 935.5,1343.5C 935.372,1339.12 935.705,1334.79 936.5,1330.5C 939.853,1329.38 943.186,1328.05 946.5,1326.5C 948.876,1322.09 949.709,1317.42 949,1312.5C 947,1309.83 945,1307.17 943,1304.5C 942.792,1300.08 942.126,1295.75 941,1291.5C 937.591,1291.59 934.091,1291.25 930.5,1290.5C 930.069,1289.71 929.735,1288.87 929.5,1288C 931.411,1284.68 933.411,1281.34 935.5,1278C 939.716,1276.8 944.049,1276.13 948.5,1276C 947.04,1272.24 945.707,1268.41 944.5,1264.5C 946.482,1259.73 946.982,1254.73 946,1249.5C 944.488,1248.74 943.154,1247.74 942,1246.5C 941.03,1242.84 939.363,1239.5 937,1236.5C 936.916,1231.44 937.249,1226.44 938,1221.5C 933.545,1216.09 929.712,1210.26 926.5,1204C 928.282,1201.76 928.782,1199.26 928,1196.5C 924.98,1187.77 922.147,1178.94 919.5,1170C 920.712,1169.75 921.878,1168.91 923,1167.5C 923.701,1164.07 923.368,1160.74 922,1157.5C 920.951,1158.52 919.784,1158.68 918.5,1158C 915.017,1155.07 911.684,1151.91 908.5,1148.5C 906.577,1147.69 904.577,1147.19 902.5,1147C 903.833,1144.67 905.167,1142.33 906.5,1140C 905.643,1139.31 904.977,1138.48 904.5,1137.5C 907.585,1134.51 908.085,1131.17 906,1127.5C 904.333,1126.17 902.667,1126.17 901,1127.5C 899.238,1124.73 896.738,1123.23 893.5,1123C 891.623,1120.75 890.123,1118.25 889,1115.5C 885.456,1113.96 883.456,1111.29 883,1107.5C 879.112,1105.28 876.279,1102.11 874.5,1098C 871.204,1096.49 867.871,1095.32 864.5,1094.5C 865.221,1097.82 865.388,1101.15 865,1104.5C 861.998,1106.17 858.831,1107 855.5,1107C 853.833,1105.33 852.167,1103.67 850.5,1102C 848.1,1101.81 845.766,1101.31 843.5,1100.5C 842.333,1098.83 841.167,1097.17 840,1095.5C 842.095,1092.11 843.595,1088.27 844.5,1084C 842.031,1081.56 839.697,1078.9 837.5,1076C 829.341,1076.03 821.341,1074.86 813.5,1072.5C 813.156,1069.44 812.489,1066.44 811.5,1063.5C 807.203,1061.04 804.703,1057.37 804,1052.5C 802.512,1050.84 800.679,1049.84 798.5,1049.5C 797.833,1049.5 797.5,1049.83 797.5,1050.5C 795.906,1050.92 794.406,1051.59 793,1052.5C 791.107,1051.8 789.274,1050.97 787.5,1050C 787.182,1047.96 787.015,1045.79 787,1043.5C 784.07,1042.98 781.57,1041.64 779.5,1039.5C 776.579,1040.41 773.579,1040.74 770.5,1040.5C 770.206,1035.02 768.54,1030.02 765.5,1025.5C 762.258,1024.48 759.425,1022.81 757,1020.5C 756.747,1017.8 756.747,1015.13 757,1012.5C 755.115,1010.2 752.615,1009.03 749.5,1009C 752.099,1005.17 752.099,1001.34 749.5,997.5C 754.623,994.876 759.623,992.043 764.5,989C 767.471,988.206 770.471,987.539 773.5,987C 776.564,982.973 778.564,978.473 779.5,973.5C 781.39,973.703 782.89,973.037 784,971.5C 788.255,977.118 791.755,976.785 794.5,970.5C 796.059,969.926 797.559,969.26 799,968.5C 799.309,969.766 799.809,970.933 800.5,972C 803.667,973.833 806.833,975.667 810,977.5C 812.547,976.527 814.047,974.693 814.5,972C 816.58,971.211 818.414,970.044 820,968.5C 821.44,969.148 822.94,969.481 824.5,969.5C 824.918,966.561 826.418,964.228 829,962.5C 829.772,958.519 830.939,954.686 832.5,951C 835.275,950.222 837.775,950.722 840,952.5C 841.559,951.971 843.059,951.304 844.5,950.5C 847.28,952.706 850.446,954.039 854,954.5C 859.526,953.954 864.693,952.62 869.5,950.5 Z M 993.5,1243.5 C 994.725,1244.15 995.392,1245.32 995.5,1247C 995.167,1248.17 994.833,1249.33 994.5,1250.5C 993.526,1248.26 993.192,1245.92 993.5,1243.5 Z M 994.5,1289.5 C 998.643,1290.41 999.143,1292.07 996,1294.5C 993.527,1293.26 993.027,1291.59 994.5,1289.5 Z M 1011.5,1389.5 C 1013.05,1389.82 1013.71,1390.82 1013.5,1392.5C 1010.75,1392.6 1010.09,1391.6 1011.5,1389.5 Z M 989.5,1476.5 C 990.559,1478.73 990.392,1481.06 989,1483.5C 986.639,1486.22 984.139,1488.39 981.5,1490C 980.221,1485.43 982.054,1482.93 987,1482.5C 988.122,1480.59 988.955,1478.59 989.5,1476.5 Z"/>
                            <path style="opacity:0.796" fill="#d52627"
                                  d="M 1396.5,964.5 C 1397.5,964.47 1398.16,964.97 1398.5,966C 1394.02,974.158 1387.36,976.825 1378.5,974C 1378.03,972.701 1378.03,971.201 1378.5,969.5C 1384.61,967.792 1390.61,966.125 1396.5,964.5 Z"/>

                            <path style="opacity:0.732" fill="#d62728"
                                  d="M 904.5,977.5 C 909.861,978.622 912.361,981.955 912,987.5C 908.742,985.12 905.576,982.62 902.5,980C 903.381,979.292 904.047,978.458 904.5,977.5 Z"/>

                            <path style="opacity:0.74" fill="#d52626"
                                  d="M 1233.5,998.5 C 1233.87,1000.59 1233.87,1002.92 1233.5,1005.5C 1231.35,1005.63 1229.35,1005.13 1227.5,1004C 1229.4,1001.93 1231.4,1000.1 1233.5,998.5 Z"/>

                            <path style="opacity:0.841" fill="#d52627"
                                  d="M 1299.5,964.5 C 1308.55,966.415 1308.72,969.081 1300,972.5C 1293.55,970.865 1293.39,968.198 1299.5,964.5 Z"/>

                            <path style="opacity:0.678" fill="#d62728"
                                  d="M 976.5,1050.5 C 979.206,1050.58 981.873,1050.91 984.5,1051.5C 984.5,1052.5 984.5,1053.5 984.5,1054.5C 981.833,1054.83 979.167,1055.17 976.5,1055.5C 976.5,1053.83 976.5,1052.17 976.5,1050.5 Z"/>

                            <path style="opacity:0.81" fill="#d52627"
                                  d="M 1863.5,1499.5 C 1864.5,1499.41 1865.33,1499.75 1866,1500.5C 1866.87,1504.96 1866.53,1509.29 1865,1513.5C 1864.67,1513.83 1864.33,1514.17 1864,1514.5C 1863,1512.5 1862,1510.5 1861,1508.5C 1859.57,1511.99 1857.41,1514.49 1854.5,1516C 1853.43,1515.26 1852.76,1514.26 1852.5,1513C 1854.78,1510.52 1857.44,1508.52 1860.5,1507C 1860.17,1506.67 1859.83,1506.33 1859.5,1506C 1860.57,1503.59 1861.9,1501.42 1863.5,1499.5 Z"/>

                            <path style="opacity:0.799" fill="#d52627"
                                  d="M 1845.5,1519.5 C 1848.32,1519.5 1849.48,1520.83 1849,1523.5C 1845.87,1525.63 1843.04,1528.13 1840.5,1531C 1838.8,1531.34 1837.47,1530.68 1836.5,1529C 1839.7,1525.96 1842.7,1522.8 1845.5,1519.5 Z"/>

                            <path style="opacity:0.754" fill="#d52627"
                                  d="M 1855.5,1521.5 C 1857.34,1526.36 1856.34,1530.69 1852.5,1534.5C 1851.33,1534.08 1850.33,1533.41 1849.5,1532.5C 1851.26,1528.65 1853.26,1524.98 1855.5,1521.5 Z"/>

                            <path style="opacity:0.795" fill="#d52526"
                                  d="M 1834.5,1528.5 C 1835.07,1533.24 1833.23,1537.24 1829,1540.5C 1828.22,1539.27 1827.72,1537.94 1827.5,1536.5C 1829.83,1533.84 1832.16,1531.17 1834.5,1528.5 Z"/>

                            <path style="opacity:0.787" fill="#d52627"
                                  d="M 1641.5,1531.5 C 1648.04,1530.61 1651.54,1533.27 1652,1539.5C 1649.58,1538.04 1647.08,1536.71 1644.5,1535.5C 1643.02,1539.48 1642.69,1543.48 1643.5,1547.5C 1641.01,1548.58 1638.68,1549.91 1636.5,1551.5C 1638.03,1552.86 1639.7,1554.03 1641.5,1555C 1636.84,1556.55 1633.5,1555.22 1631.5,1551C 1632.17,1550 1632.83,1549 1633.5,1548C 1635.9,1547.81 1638.23,1547.31 1640.5,1546.5C 1638.97,1541.33 1639.3,1536.33 1641.5,1531.5 Z"/>

                            <path style="opacity:0.773" fill="#d52627"
                                  d="M 1847.5,1534.5 C 1849.26,1535.07 1850.92,1535.91 1852.5,1537C 1850.71,1540.75 1848.54,1544.25 1846,1547.5C 1845.17,1546.67 1844.33,1545.83 1843.5,1545C 1845.33,1541.68 1846.66,1538.18 1847.5,1534.5 Z"/>

                            <path style="opacity:0.794" fill="#d52626"
                                  d="M 1825.5,1538.5 C 1828.23,1542.03 1827.56,1545.03 1823.5,1547.5C 1822.35,1546.86 1821.35,1546.02 1820.5,1545C 1822,1542.67 1823.67,1540.51 1825.5,1538.5 Z"/>

                            <path style="opacity:0.8" fill="#d52627"
                                  d="M 1661.5,1573.5 C 1663.31,1573.57 1664.64,1574.41 1665.5,1576C 1665.11,1580.28 1663.28,1583.78 1660,1586.5C 1659.98,1584.2 1660.15,1581.87 1660.5,1579.5C 1659.13,1579.66 1657.79,1579.49 1656.5,1579C 1658.37,1577.3 1660.04,1575.46 1661.5,1573.5 Z"/>

                            <path style="opacity:0.658" fill="#d52627"
                                  d="M 1646.5,1592.5 C 1647.47,1594.61 1647.8,1596.94 1647.5,1599.5C 1645.42,1599.47 1643.58,1600.14 1642,1601.5C 1642.73,1598.23 1644.23,1595.23 1646.5,1592.5 Z"/>

                            <path style="opacity:0.657" fill="#d62728"
                                  d="M 1638.5,1603.5 C 1639.63,1607.12 1639.3,1610.79 1637.5,1614.5C 1635.98,1613.47 1635.31,1611.97 1635.5,1610C 1635.39,1607.29 1636.39,1605.12 1638.5,1603.5 Z"/>

                            <path style="opacity:0.721" fill="#d52627"
                                  d="M 1679.5,1602.5 C 1680.1,1602.74 1680.43,1603.24 1680.5,1604C 1679.52,1606.43 1678.85,1608.93 1678.5,1611.5C 1675.81,1611.66 1673.15,1611.5 1670.5,1611C 1673.96,1608.61 1676.96,1605.78 1679.5,1602.5 Z"/>

                            <path style="opacity:0.78" fill="#d52627"
                                  d="M 1853.5,1603.5 C 1857.39,1603.19 1860.73,1604.35 1863.5,1607C 1861.73,1607.97 1859.89,1608.8 1858,1609.5C 1856.35,1609.18 1855.35,1608.18 1855,1606.5C 1854.51,1608.13 1854.34,1609.8 1854.5,1611.5C 1850.55,1611.51 1848.89,1609.51 1849.5,1605.5C 1851.48,1605.84 1852.82,1605.18 1853.5,1603.5 Z"/>

                            <path style="opacity:0.819" fill="#d52627"
                                  d="M 1786.5,1612.5 C 1791.57,1617.3 1794.57,1623.3 1795.5,1630.5C 1790.97,1635.06 1789.14,1634.39 1790,1628.5C 1788.98,1626.1 1787.82,1623.77 1786.5,1621.5C 1786.17,1622.33 1785.83,1623.17 1785.5,1624C 1787.09,1627.67 1787.76,1631.51 1787.5,1635.5C 1788.68,1635.28 1789.68,1635.61 1790.5,1636.5C 1789.17,1639.83 1787.34,1642.83 1785,1645.5C 1783.48,1636.85 1782.48,1628.18 1782,1619.5C 1783.51,1617.14 1785.01,1614.81 1786.5,1612.5 Z"/>

                            <path style="opacity:0.68" fill="#d52627"
                                  d="M 1840.5,1612.5 C 1843.57,1612.18 1846.57,1612.52 1849.5,1613.5C 1846.25,1615.38 1843.08,1617.38 1840,1619.5C 1839.67,1617.15 1839.83,1614.82 1840.5,1612.5 Z"/>

                            <path style="opacity:0.815" fill="#d52627"
                                  d="M 1880.5,1613.5 C 1883.39,1614.88 1885.89,1616.88 1888,1619.5C 1888.62,1620.45 1888.45,1621.28 1887.5,1622C 1880.57,1622.88 1878.24,1620.05 1880.5,1613.5 Z"/>

                            <path style="opacity:0.659" fill="#d52727"
                                  d="M 1634.5,1615.5 C 1636.57,1617.32 1637.9,1619.65 1638.5,1622.5C 1637.33,1624.83 1636.17,1627.17 1635,1629.5C 1634.5,1624.85 1634.33,1620.18 1634.5,1615.5 Z"/>

                            <path style="opacity:0.785" fill="#d52627"
                                  d="M 1828.5,1617.5 C 1829.55,1617.35 1830.55,1617.52 1831.5,1618C 1830.73,1620.41 1830.23,1622.91 1830,1625.5C 1829.36,1626.65 1828.52,1627.65 1827.5,1628.5C 1829.42,1631.34 1831.09,1634.34 1832.5,1637.5C 1830.83,1639.5 1829.17,1641.5 1827.5,1643.5C 1825.49,1642.55 1824.49,1640.88 1824.5,1638.5C 1825.73,1634.99 1825.73,1631.49 1824.5,1628C 1826.46,1625.46 1827.79,1621.96 1828.5,1617.5 Z"/>

                            <path style="opacity:0.797" fill="#d52627"
                                  d="M 1902.5,1629.5 C 1903.93,1629.88 1904.76,1630.88 1905,1632.5C 1905.67,1635.83 1905.67,1639.17 1905,1642.5C 1903.26,1640.68 1901.76,1638.68 1900.5,1636.5C 1899.39,1637.59 1898.39,1637.59 1897.5,1636.5C 1899.6,1634.41 1901.27,1632.08 1902.5,1629.5 Z"/>

                            <path style="opacity:0.769" fill="#d62728"
                                  d="M 960.5,1646.5 C 961.999,1649.34 962.333,1652.34 961.5,1655.5C 957.2,1654.66 955.2,1651.99 955.5,1647.5C 957.415,1647.78 959.081,1647.45 960.5,1646.5 Z"/>

                            <path style="opacity:0.851" fill="#d52627"
                                  d="M 1918.5,1645.5 C 1920.48,1650.13 1918.98,1653.13 1914,1654.5C 1912.01,1652.54 1910.51,1650.2 1909.5,1647.5C 1912.54,1647.89 1915.54,1647.22 1918.5,1645.5 Z"/>

                            <path style="opacity:0.881" fill="#d52627"
                                  d="M 1775.5,1649.5 C 1778.17,1649.5 1780.83,1649.5 1783.5,1649.5C 1784.4,1654.67 1782.57,1658.34 1778,1660.5C 1775.39,1659.79 1773.23,1658.45 1771.5,1656.5C 1772.59,1653.98 1773.93,1651.64 1775.5,1649.5 Z"/>

                            <path style="opacity:0.756" fill="#d52627"
                                  d="M 1633.5,1664.5 C 1635.44,1665.01 1636.44,1666.35 1636.5,1668.5C 1635.1,1672.53 1633.6,1676.53 1632,1680.5C 1631.8,1678.74 1631.3,1677.08 1630.5,1675.5C 1625.46,1673.29 1620.79,1670.46 1616.5,1667C 1619.16,1666.93 1621.82,1667.26 1624.5,1668C 1625.04,1670.11 1626.04,1670.61 1627.5,1669.5C 1628.48,1669.98 1629.31,1670.64 1630,1671.5C 1631.65,1669.39 1632.81,1667.06 1633.5,1664.5 Z"/>

                            <path style="opacity:0.772" fill="#d52627"
                                  d="M 1653.5,1666.5 C 1654.57,1667.25 1654.74,1668.25 1654,1669.5C 1652.89,1673.2 1651.22,1676.53 1649,1679.5C 1646.66,1681.03 1645.16,1680.36 1644.5,1677.5C 1642.83,1676.83 1641.17,1676.17 1639.5,1675.5C 1639.71,1674.91 1640.04,1674.41 1640.5,1674C 1646.41,1674.26 1650.74,1671.76 1653.5,1666.5 Z"/>

                            <path style="opacity:0.831" fill="#d52627"
                                  d="M 1866.5,1666.5 C 1871.36,1668.27 1871.69,1670.77 1867.5,1674C 1871.63,1677.09 1871.47,1679.93 1867,1682.5C 1864.69,1681.36 1862.86,1679.69 1861.5,1677.5C 1864.13,1674.3 1865.79,1670.63 1866.5,1666.5 Z"/>

                            <path style="opacity:0.638" fill="#d62727"
                                  d="M 1623.5,1684.5 C 1626.52,1684.84 1629.18,1686.01 1631.5,1688C 1626.6,1688.63 1621.93,1687.96 1617.5,1686C 1619.71,1685.81 1621.71,1685.31 1623.5,1684.5 Z"/>

                            <path style="opacity:0.72" fill="#d52627"
                                  d="M 1719.5,1687.5 C 1721.4,1688.37 1723.24,1689.37 1725,1690.5C 1726.47,1689.67 1727.97,1689.5 1729.5,1690C 1726.67,1692.17 1723.83,1694.33 1721,1696.5C 1719.71,1693.65 1719.21,1690.65 1719.5,1687.5 Z"/>

                            <path style="opacity:0.754" fill="#d62727"
                                  d="M 1546.5,1697.5 C 1548.72,1698.11 1550.39,1699.45 1551.5,1701.5C 1550.74,1705.11 1550.24,1708.78 1550,1712.5C 1549.8,1714.29 1548.97,1715.62 1547.5,1716.5C 1546.5,1710.2 1546.17,1703.87 1546.5,1697.5 Z"/>

                            <path style="opacity:0.683" fill="#d52627"
                                  d="M 1633.5,1715.5 C 1637.97,1714.51 1642.64,1714.18 1647.5,1714.5C 1647.14,1718.26 1646.31,1721.93 1645,1725.5C 1644.01,1723.22 1643.18,1720.89 1642.5,1718.5C 1639.52,1717.34 1636.52,1716.34 1633.5,1715.5 Z"/>

                            <path style="opacity:0.801" fill="#d52626"
                                  d="M 1746.5,1722.5 C 1749.52,1722.8 1752.52,1723.3 1755.5,1724C 1757.21,1725.13 1757.71,1726.63 1757,1728.5C 1754.13,1732.91 1750.63,1733.57 1746.5,1730.5C 1745.18,1727.8 1745.18,1725.14 1746.5,1722.5 Z M 1748.5,1725.5 C 1755.09,1726.57 1755.09,1727.57 1748.5,1728.5C 1748.5,1727.5 1748.5,1726.5 1748.5,1725.5 Z"/>

                            <path style="opacity:0.786" fill="#d52626"
                                  d="M 1599.5,1729.5 C 1602.58,1728.51 1605.58,1729.01 1608.5,1731C 1607.33,1732.08 1606,1732.92 1604.5,1733.5C 1602.81,1732.14 1601.15,1730.81 1599.5,1729.5 Z"/>

                            <path style="opacity:0.753" fill="#d52627"
                                  d="M 1790.5,1737.5 C 1792.75,1737.95 1794.08,1739.28 1794.5,1741.5C 1792.84,1748.48 1790.34,1755.15 1787,1761.5C 1787.53,1755.47 1787.37,1749.47 1786.5,1743.5C 1787.84,1741.47 1789.18,1739.47 1790.5,1737.5 Z"/>

                            <path style="opacity:0.688" fill="#d52627"
                                  d="M 1855.5,1740.5 C 1858.62,1739.52 1861.96,1739.19 1865.5,1739.5C 1865.76,1740.98 1865.43,1742.31 1864.5,1743.5C 1861.52,1742.34 1858.52,1741.34 1855.5,1740.5 Z"/>

                            <path style="opacity:0.821" fill="#d62627"
                                  d="M 1867.5,1743.5 C 1873.47,1743.93 1878.14,1746.6 1881.5,1751.5C 1877.12,1752.05 1872.78,1751.38 1868.5,1749.5C 1867.53,1747.6 1867.2,1745.6 1867.5,1743.5 Z"/>

                            <path style="opacity:0.793" fill="#d52627"
                                  d="M 1445.5,1748.5 C 1446.24,1748.37 1446.91,1748.54 1447.5,1749C 1437.94,1763.42 1439.44,1764.26 1452,1751.5C 1453.02,1752.35 1453.86,1753.35 1454.5,1754.5C 1447.26,1761.24 1439.09,1766.57 1430,1770.5C 1431.4,1766.37 1433.4,1762.37 1436,1758.5C 1439.37,1755.3 1442.54,1751.96 1445.5,1748.5 Z"/>

                            <path style="opacity:0.743" fill="#d62627"
                                  d="M 1739.5,1784.5 C 1741.35,1787.32 1742.68,1790.49 1743.5,1794C 1741.26,1794.98 1738.93,1795.48 1736.5,1795.5C 1736.58,1794.07 1736.25,1792.74 1735.5,1791.5C 1736.86,1789.15 1738.19,1786.82 1739.5,1784.5 Z"/>

                            <path style="opacity:0.7" fill="#d52627"
                                  d="M 1797.5,1796.5 C 1800.18,1797.23 1802.85,1798.06 1805.5,1799C 1801.97,1800.16 1798.3,1800.99 1794.5,1801.5C 1793.48,1801 1793.31,1800.33 1794,1799.5C 1795.15,1798.36 1796.31,1797.36 1797.5,1796.5 Z"/>

                            <path style="opacity:0.774" fill="#d52627"
                                  d="M 1883.5,1829.5 C 1887.38,1829.75 1889.38,1831.75 1889.5,1835.5C 1887.83,1835.5 1886.17,1835.5 1884.5,1835.5C 1884.17,1833.5 1883.83,1831.5 1883.5,1829.5 Z"/>

                            <path style="opacity:0.761" fill="#d52627"
                                  d="M 1534.5,1837.5 C 1535.38,1837.37 1536.04,1837.7 1536.5,1838.5C 1532.48,1842.7 1527.65,1845.36 1522,1846.5C 1521.38,1844.54 1521.88,1842.87 1523.5,1841.5C 1527.33,1840.3 1531,1838.97 1534.5,1837.5 Z"/>

                            <path style="opacity:0.738" fill="#d62627"
                                  d="M 1839.5,1846.5 C 1841.17,1846.5 1842.83,1846.5 1844.5,1846.5C 1844.6,1850.73 1842.77,1853.73 1839,1855.5C 1838.08,1854.95 1837.24,1854.29 1836.5,1853.5C 1837.7,1851.22 1838.7,1848.89 1839.5,1846.5 Z"/>

                            <path style="opacity:0.759" fill="#d52627"
                                  d="M 1642.5,1852.5 C 1645.52,1852.34 1648.52,1852.5 1651.5,1853C 1648.6,1855.57 1645.43,1857.74 1642,1859.5C 1641.5,1859.17 1641,1858.83 1640.5,1858.5C 1641.17,1856.47 1641.84,1854.47 1642.5,1852.5 Z"/>

                            <path style="opacity:0.841" fill="#d52627"
                                  d="M 1390.5,1854.5 C 1394.42,1855.27 1398.42,1855.77 1402.5,1856C 1405.03,1856.62 1407.37,1857.62 1409.5,1859C 1404.3,1860.78 1398.97,1861.95 1393.5,1862.5C 1392.1,1859.97 1391.1,1857.31 1390.5,1854.5 Z"/>

                            <path style="opacity:0.842" fill="#d52627"
                                  d="M 1554.5,1855.5 C 1559.51,1856.02 1564.51,1856.69 1569.5,1857.5C 1572.86,1859.37 1574.86,1862.2 1575.5,1866C 1574.97,1866.69 1574.31,1867.19 1573.5,1867.5C 1565.69,1866.43 1558.69,1863.43 1552.5,1858.5C 1553.19,1857.48 1553.86,1856.48 1554.5,1855.5 Z M 1560.5,1860.5 C 1563.6,1859.18 1566.26,1860.02 1568.5,1863C 1565.82,1862.51 1563.15,1861.68 1560.5,1860.5 Z"/>

                            <path style="opacity:0.741" fill="#d52627"
                                  d="M 1584.5,1866.5 C 1589.51,1866.97 1592.18,1869.8 1592.5,1875C 1591.22,1877.07 1589.39,1878.57 1587,1879.5C 1586.03,1875.17 1585.19,1870.84 1584.5,1866.5 Z"/>

                            <path style="opacity:0.773" fill="#d52627"
                                  d="M 1286.5,1873.5 C 1290.65,1873.63 1291.32,1875.13 1288.5,1878C 1285.61,1878.72 1282.95,1878.22 1280.5,1876.5C 1282.59,1875.48 1284.59,1874.48 1286.5,1873.5 Z"/>

                            <path style="opacity:0.841" fill="#d52627"
                                  d="M 1705.5,1911.5 C 1710.88,1912.4 1716.21,1913.73 1721.5,1915.5C 1721.04,1917.29 1719.87,1918.29 1718,1918.5C 1714.78,1918.06 1711.62,1917.4 1708.5,1916.5C 1707.05,1915.06 1706.05,1913.39 1705.5,1911.5 Z"/>

                            <path style="opacity:0.841" fill="#d52626"
                                  d="M 1488.5,1922.5 C 1489.68,1922.28 1490.68,1922.61 1491.5,1923.5C 1490.09,1934.08 1485.09,1942.58 1476.5,1949C 1474.8,1949.34 1473.47,1948.68 1472.5,1947C 1476.93,1943.91 1479.76,1939.74 1481,1934.5C 1485.41,1931.61 1487.91,1927.61 1488.5,1922.5 Z"/>

                            <path style="opacity:0.856" fill="#d52627"
                                  d="M 1649.5,1936.5 C 1654.87,1936.23 1659.37,1937.9 1663,1941.5C 1664.77,1949.95 1662.93,1950.78 1657.5,1944C 1652.91,1943.2 1648.41,1943.37 1644,1944.5C 1644.2,1946.75 1645.36,1948.58 1647.5,1950C 1644.88,1952.19 1642.88,1951.69 1641.5,1948.5C 1636.11,1947.74 1630.77,1947.41 1625.5,1947.5C 1626.31,1946.19 1627.31,1945.02 1628.5,1944C 1635.82,1941.99 1642.82,1939.49 1649.5,1936.5 Z"/>

                            <path style="opacity:0.836" fill="#d62627"
                                  d="M 1158.5,1948.5 C 1161.58,1948.42 1163.25,1949.92 1163.5,1953C 1162.79,1960.1 1160.12,1961.1 1155.5,1956C 1156.03,1953.24 1157.03,1950.74 1158.5,1948.5 Z"/>

                            <path style="opacity:0.813" fill="#d52627"
                                  d="M 1555.5,1955.5 C 1557.37,1955.86 1558.87,1956.86 1560,1958.5C 1561.88,1960.53 1563.05,1962.86 1563.5,1965.5C 1561.86,1965.29 1560.36,1965.62 1559,1966.5C 1557.58,1962.75 1555.08,1959.92 1551.5,1958C 1552.86,1957.07 1554.19,1956.23 1555.5,1955.5 Z"/>

                            <path style="opacity:0.767" fill="#d52627"
                                  d="M 1616.5,1960.5 C 1620.33,1960.25 1623.66,1961.42 1626.5,1964C 1622.77,1963.91 1619.77,1965.24 1617.5,1968C 1613.84,1969.37 1610.17,1969.7 1606.5,1969C 1605.24,1971.93 1603.07,1973.76 1600,1974.5C 1598.8,1977.19 1598.64,1979.85 1599.5,1982.5C 1596.5,1983.83 1593.5,1983.83 1590.5,1982.5C 1594.02,1980.48 1596.19,1977.48 1597,1973.5C 1599.85,1970.95 1602.35,1968.11 1604.5,1965C 1606.89,1963.17 1609.23,1963.34 1611.5,1965.5C 1613.58,1964.2 1615.25,1962.53 1616.5,1960.5 Z"/>

                            <path style="opacity:0.7" fill="#d52627"
                                  d="M 1288.5,1963.5 C 1290.8,1964.06 1293.13,1964.56 1295.5,1965C 1294.95,1966.84 1293.95,1968.34 1292.5,1969.5C 1290.72,1967.74 1289.39,1965.74 1288.5,1963.5 Z"/>

                            <path style="opacity:0.793" fill="#d52626"
                                  d="M 1623.5,1966.5 C 1625.56,1967.5 1626.4,1969.17 1626,1971.5C 1622.17,1975.33 1618.33,1979.17 1614.5,1983C 1613.83,1983.67 1613.17,1983.67 1612.5,1983C 1616.66,1977.89 1620.33,1972.39 1623.5,1966.5 Z"/>

                            <path style="opacity:0.72" fill="#d52626"
                                  d="M 1293.5,1971.5 C 1294.65,1971.79 1295.32,1972.62 1295.5,1974C 1297.59,1983.02 1296.26,1983.68 1291.5,1976C 1292.58,1974.67 1293.25,1973.17 1293.5,1971.5 Z"/>

                            <path style="opacity:0.735" fill="#d52627"
                                  d="M 980.5,1975.5 C 986.735,1977.06 987.068,1979.39 981.5,1982.5C 977.967,1980.58 977.633,1978.25 980.5,1975.5 Z"/>

                            <path style="opacity:0.761" fill="#d52627"
                                  d="M 1143.5,1975.5 C 1145.17,1975.5 1146.83,1975.5 1148.5,1975.5C 1147.47,1981.69 1143.81,1984.52 1137.5,1984C 1139.89,1981.37 1141.89,1978.54 1143.5,1975.5 Z"/>

                            <path style="opacity:0.816" fill="#d52627"
                                  d="M 1580.5,1987.5 C 1585.42,1987.12 1588.75,1989.29 1590.5,1994C 1587.73,1994.21 1585.23,1993.38 1583,1991.5C 1577.66,1993.83 1573.16,1997.33 1569.5,2002C 1565.93,2003.31 1562.26,2004.14 1558.5,2004.5C 1558.34,2002.47 1558.5,2000.47 1559,1998.5C 1561.1,1999.57 1563.26,2000.07 1565.5,2000C 1570.4,1995.59 1575.4,1991.43 1580.5,1987.5 Z"/>

                            <path style="opacity:0.685" fill="#d52627"
                                  d="M 1606.5,1992.5 C 1608.17,1992.5 1609.83,1992.5 1611.5,1992.5C 1610.68,2000.09 1609.01,2000.09 1606.5,1992.5 Z"/>

                            <path style="opacity:0.715" fill="#d52627"
                                  d="M 1290.5,1999.5 C 1291.87,1999.34 1293.21,1999.51 1294.5,2000C 1290.91,2002.38 1287.41,2004.88 1284,2007.5C 1283.12,2002.23 1285.29,1999.56 1290.5,1999.5 Z"/>

                            <path style="opacity:0.718" fill="#d52627"
                                  d="M 1545.5,1999.5 C 1546.5,1999.5 1547.5,1999.5 1548.5,1999.5C 1548.67,2000.82 1548.34,2001.99 1547.5,2003C 1545.15,2003.44 1542.82,2003.94 1540.5,2004.5C 1539.09,2004.13 1538.09,2003.3 1537.5,2002C 1540.25,2001.06 1542.92,2000.22 1545.5,1999.5 Z"/>

                            <path style="opacity:0.777" fill="#d52627"
                                  d="M 1270.5,2008.5 C 1272.94,2008.89 1274.94,2010.05 1276.5,2012C 1274.71,2014.41 1273.04,2016.91 1271.5,2019.5C 1270.1,2019.13 1269.1,2018.3 1268.5,2017C 1269.69,2014.28 1270.35,2011.44 1270.5,2008.5 Z"/>

                            <path style="opacity:0.705" fill="#d52627"
                                  d="M 1546.5,2028.5 C 1552.12,2028.36 1553.12,2029.86 1549.5,2033C 1546.05,2033.48 1542.71,2032.98 1539.5,2031.5C 1541.87,2030.34 1544.21,2029.34 1546.5,2028.5 Z"/>
                        </g>

                        <g id="central_highlands" class="regions">
                            <path style="opacity:0.998" fill="#9466bc"
                                  d="M 798.5,1049.5 C 800.679,1049.84 802.512,1050.84 804,1052.5C 804.703,1057.37 807.203,1061.04 811.5,1063.5C 812.489,1066.44 813.156,1069.44 813.5,1072.5C 821.341,1074.86 829.341,1076.03 837.5,1076C 839.697,1078.9 842.031,1081.56 844.5,1084C 843.595,1088.27 842.095,1092.11 840,1095.5C 841.167,1097.17 842.333,1098.83 843.5,1100.5C 845.766,1101.31 848.1,1101.81 850.5,1102C 852.167,1103.67 853.833,1105.33 855.5,1107C 858.831,1107 861.998,1106.17 865,1104.5C 865.388,1101.15 865.221,1097.82 864.5,1094.5C 867.871,1095.32 871.204,1096.49 874.5,1098C 876.279,1102.11 879.112,1105.28 883,1107.5C 883.456,1111.29 885.456,1113.96 889,1115.5C 890.123,1118.25 891.623,1120.75 893.5,1123C 896.738,1123.23 899.238,1124.73 901,1127.5C 902.667,1126.17 904.333,1126.17 906,1127.5C 908.085,1131.17 907.585,1134.51 904.5,1137.5C 904.977,1138.48 905.643,1139.31 906.5,1140C 905.167,1142.33 903.833,1144.67 902.5,1147C 904.577,1147.19 906.577,1147.69 908.5,1148.5C 911.684,1151.91 915.017,1155.07 918.5,1158C 919.784,1158.68 920.951,1158.52 922,1157.5C 923.368,1160.74 923.701,1164.07 923,1167.5C 921.878,1168.91 920.712,1169.75 919.5,1170C 922.147,1178.94 924.98,1187.77 928,1196.5C 928.782,1199.26 928.282,1201.76 926.5,1204C 929.712,1210.26 933.545,1216.09 938,1221.5C 937.249,1226.44 936.916,1231.44 937,1236.5C 939.363,1239.5 941.03,1242.84 942,1246.5C 943.154,1247.74 944.488,1248.74 946,1249.5C 946.982,1254.73 946.482,1259.73 944.5,1264.5C 945.707,1268.41 947.04,1272.24 948.5,1276C 944.049,1276.13 939.716,1276.8 935.5,1278C 933.411,1281.34 931.411,1284.68 929.5,1288C 929.735,1288.87 930.069,1289.71 930.5,1290.5C 934.091,1291.25 937.591,1291.59 941,1291.5C 942.126,1295.75 942.792,1300.08 943,1304.5C 945,1307.17 947,1309.83 949,1312.5C 949.709,1317.42 948.876,1322.09 946.5,1326.5C 943.186,1328.05 939.853,1329.38 936.5,1330.5C 935.705,1334.79 935.372,1339.12 935.5,1343.5C 932.984,1343.76 930.65,1344.59 928.5,1346C 926.789,1347.13 926.289,1348.63 927,1350.5C 929.585,1352.76 932.418,1354.59 935.5,1356C 936.874,1358.58 938.374,1361.08 940,1363.5C 944.7,1363.69 947.867,1366.03 949.5,1370.5C 953.459,1371.33 957.459,1371.83 961.5,1372C 962.126,1372.75 962.626,1373.58 963,1374.5C 963.499,1378.15 963.665,1381.82 963.5,1385.5C 961.856,1385.71 960.356,1385.38 959,1384.5C 957.581,1385.46 956.081,1386.29 954.5,1387C 954.279,1388.8 953.946,1390.63 953.5,1392.5C 950.841,1393.16 949.174,1394.83 948.5,1397.5C 950.167,1398.5 951.5,1399.83 952.5,1401.5C 951.03,1404.27 949.697,1407.11 948.5,1410C 948.759,1411.26 949.426,1412.26 950.5,1413C 949.167,1413.67 947.833,1413.67 946.5,1413C 944.13,1410.63 941.296,1409.13 938,1408.5C 935.837,1408.49 934.337,1409.49 933.5,1411.5C 932.914,1411.29 932.414,1410.96 932,1410.5C 929.763,1412.65 927.763,1414.98 926,1417.5C 927.12,1425.7 928.787,1433.7 931,1441.5C 931.833,1442.33 932.667,1443.17 933.5,1444C 932.233,1445.8 932.233,1447.63 933.5,1449.5C 930.195,1450.87 927.529,1453.04 925.5,1456C 928.178,1457.84 929.845,1460.34 930.5,1463.5C 925.301,1471.63 922.801,1480.63 923,1490.5C 921.833,1491.67 920.667,1492.83 919.5,1494C 921.167,1495.17 922.833,1496.33 924.5,1497.5C 925.205,1501 926.539,1504.17 928.5,1507C 928.3,1509.54 926.967,1511.2 924.5,1512C 920.779,1512.64 917.113,1513.48 913.5,1514.5C 912.544,1515.87 911.878,1517.37 911.5,1519C 912.615,1521.62 913.949,1524.12 915.5,1526.5C 914.243,1528.68 912.743,1530.68 911,1532.5C 910.25,1531.87 909.416,1531.37 908.5,1531C 903.914,1530.8 899.414,1530.3 895,1529.5C 892.657,1530.13 890.49,1531.13 888.5,1532.5C 887.259,1529.86 885.259,1529.02 882.5,1530C 876.417,1533.21 876.25,1536.38 882,1539.5C 882.982,1540.76 883.315,1542.09 883,1543.5C 878.801,1548.03 874.301,1552.2 869.5,1556C 863.551,1557.95 858.051,1560.78 853,1564.5C 850.769,1561.21 848.936,1557.71 847.5,1554C 836.566,1549.5 825.233,1548.33 813.5,1550.5C 813.023,1551.48 812.357,1552.31 811.5,1553C 804.648,1554.66 798.815,1552.82 794,1547.5C 792.583,1548.08 791.75,1549.08 791.5,1550.5C 786.919,1549.09 783.752,1546.09 782,1541.5C 779.209,1544.27 777.375,1543.61 776.5,1539.5C 777.648,1537.85 778.981,1536.35 780.5,1535C 778.833,1533.33 777.167,1531.67 775.5,1530C 773.744,1529.86 772.078,1530.36 770.5,1531.5C 769.692,1529.58 769.192,1527.58 769,1525.5C 765.707,1528.18 763.041,1527.51 761,1523.5C 760.667,1521.5 760.333,1519.5 760,1517.5C 758.529,1516.62 757.696,1515.29 757.5,1513.5C 758.861,1510.37 759.694,1507.03 760,1503.5C 763.478,1501.23 767.311,1499.73 771.5,1499C 772.092,1495.39 773.425,1492.06 775.5,1489C 771.41,1482.99 767.41,1476.99 763.5,1471C 759.855,1470.01 756.188,1469.17 752.5,1468.5C 752.993,1456.69 751.993,1445.02 749.5,1433.5C 752.497,1433.8 755.164,1432.64 757.5,1430C 764.928,1427.34 770.261,1429.51 773.5,1436.5C 774.76,1437.38 775.926,1438.38 777,1439.5C 777.333,1437.83 777.667,1436.17 778,1434.5C 782,1431.83 786,1429.17 790,1426.5C 790.081,1420.75 791.248,1415.25 793.5,1410C 792.314,1406.67 792.98,1403.67 795.5,1401C 794.938,1397.68 793.938,1394.52 792.5,1391.5C 793.8,1388.68 793.467,1386.01 791.5,1383.5C 793.632,1375.73 791.465,1369.4 785,1364.5C 784.895,1360.64 784.062,1356.97 782.5,1353.5C 784.994,1350.92 784.994,1348.25 782.5,1345.5C 788.921,1331.16 794.921,1316.66 800.5,1302C 799.859,1295.47 799.026,1288.97 798,1282.5C 794.896,1274.15 791.729,1265.82 788.5,1257.5C 784.723,1255.29 781.39,1252.63 778.5,1249.5C 778.967,1247.43 779.634,1245.43 780.5,1243.5C 778.219,1241.67 778.219,1239.67 780.5,1237.5C 779.51,1233.89 778.844,1230.23 778.5,1226.5C 770.244,1228.07 766.911,1224.91 768.5,1217C 767.439,1214.97 766.105,1213.14 764.5,1211.5C 767.495,1206.32 770.329,1200.98 773,1195.5C 773.718,1191.52 773.218,1187.69 771.5,1184C 772.536,1182.1 773.702,1180.27 775,1178.5C 775.186,1176.1 775.686,1173.77 776.5,1171.5C 778.557,1170.18 780.39,1170.51 782,1172.5C 782.945,1172.09 783.612,1171.43 784,1170.5C 784.346,1165.28 785.846,1160.44 788.5,1156C 785.849,1153.48 786.016,1151.31 789,1149.5C 790.67,1145.2 791.17,1140.87 790.5,1136.5C 786.34,1135.91 785.673,1134.24 788.5,1131.5C 787.289,1130.13 786.289,1128.63 785.5,1127C 788.5,1123.33 791.5,1119.67 794.5,1116C 790.946,1112.78 787.112,1109.94 783,1107.5C 781.663,1103.97 781.163,1100.31 781.5,1096.5C 784.875,1096.23 788.042,1095.23 791,1093.5C 792.473,1093.9 793.806,1094.57 795,1095.5C 796.255,1094.79 797.421,1093.96 798.5,1093C 797.707,1091.91 797.04,1090.75 796.5,1089.5C 797.599,1086.97 798.599,1084.47 799.5,1082C 797.443,1080.28 795.776,1078.28 794.5,1076C 795.619,1074.12 797.286,1073.29 799.5,1073.5C 798.62,1069.63 798.62,1065.8 799.5,1062C 797.134,1058.39 796.467,1054.56 797.5,1050.5C 798.167,1050.5 798.5,1050.17 798.5,1049.5 Z"/>
                        </g>
                        <g id="south_east" class="regions">
                            <path style="opacity:0.998" fill="#8c564b"
                                  d="M 749.5,1433.5 C 751.993,1445.02 752.993,1456.69 752.5,1468.5C 756.188,1469.17 759.855,1470.01 763.5,1471C 767.41,1476.99 771.41,1482.99 775.5,1489C 773.425,1492.06 772.092,1495.39 771.5,1499C 767.311,1499.73 763.478,1501.23 760,1503.5C 759.694,1507.03 758.861,1510.37 757.5,1513.5C 757.696,1515.29 758.529,1516.62 760,1517.5C 760.333,1519.5 760.667,1521.5 761,1523.5C 763.041,1527.51 765.707,1528.18 769,1525.5C 769.192,1527.58 769.692,1529.58 770.5,1531.5C 772.078,1530.36 773.744,1529.86 775.5,1530C 777.167,1531.67 778.833,1533.33 780.5,1535C 778.981,1536.35 777.648,1537.85 776.5,1539.5C 777.375,1543.61 779.209,1544.27 782,1541.5C 783.752,1546.09 786.919,1549.09 791.5,1550.5C 789.722,1554.57 789.055,1558.9 789.5,1563.5C 788.178,1563.33 787.011,1563.66 786,1564.5C 784.306,1569.09 782.14,1573.42 779.5,1577.5C 780.485,1579.1 780.651,1580.76 780,1582.5C 775.339,1585.92 775.839,1588.75 781.5,1591C 787.279,1591.1 791.112,1593.94 793,1599.5C 793.376,1605.35 794.043,1611.01 795,1616.5C 792.075,1619.37 788.908,1621.87 785.5,1624C 786.27,1625.77 787.437,1627.27 789,1628.5C 791.715,1634.58 793.215,1640.91 793.5,1647.5C 791.968,1650.06 790.301,1652.56 788.5,1655C 784.876,1654.99 781.876,1656.32 779.5,1659C 775.181,1659.76 770.848,1660.43 766.5,1661C 762.833,1663.33 759.833,1666.33 757.5,1670C 754.167,1669.33 750.833,1668.67 747.5,1668C 745.33,1669.59 742.996,1670.92 740.5,1672C 739.174,1674.16 737.507,1675.99 735.5,1677.5C 733.973,1675.81 732.64,1673.97 731.5,1672C 734.017,1669.65 736.35,1667.15 738.5,1664.5C 737.284,1663.9 735.951,1663.74 734.5,1664C 731.96,1662.96 730.293,1661.13 729.5,1658.5C 727.298,1659.78 725.132,1659.78 723,1658.5C 722.293,1660.08 721.46,1661.58 720.5,1663C 722.615,1663.42 723.448,1664.59 723,1666.5C 719.4,1668.55 715.567,1669.89 711.5,1670.5C 711.065,1674.56 708.731,1676.56 704.5,1676.5C 702.84,1668.84 699.34,1662.18 694,1656.5C 694.947,1651.27 694.114,1646.27 691.5,1641.5C 692.818,1638.76 691.818,1637.1 688.5,1636.5C 686.571,1637.38 684.737,1638.38 683,1639.5C 679.691,1636.85 675.858,1635.85 671.5,1636.5C 670.882,1633.6 669.715,1630.94 668,1628.5C 664.703,1627.77 662.203,1625.93 660.5,1623C 661.729,1621.47 663.229,1620.3 665,1619.5C 666.398,1614.84 667.398,1610.17 668,1605.5C 663.585,1603.38 659.418,1600.88 655.5,1598C 651.752,1598.22 648.752,1596.89 646.5,1594C 644.35,1592.59 642.016,1591.76 639.5,1591.5C 639.5,1593.17 639.5,1594.83 639.5,1596.5C 635.02,1596.27 630.687,1596.93 626.5,1598.5C 625.016,1597.53 624.016,1596.2 623.5,1594.5C 625.288,1594.79 626.955,1594.45 628.5,1593.5C 627.79,1590.33 626.623,1587.33 625,1584.5C 622.324,1583.43 619.991,1584.09 618,1586.5C 615.173,1582.25 611.506,1578.92 607,1576.5C 606.506,1574.87 606.34,1573.2 606.5,1571.5C 599.368,1571.03 595.034,1567.36 593.5,1560.5C 591.833,1560.5 590.167,1560.5 588.5,1560.5C 588.196,1556.78 588.863,1553.28 590.5,1550C 589.833,1549 589.167,1548 588.5,1547C 589.833,1544.67 591.167,1542.33 592.5,1540C 591.272,1539.22 590.272,1538.22 589.5,1537C 590.536,1533.88 590.703,1530.71 590,1527.5C 587.903,1526.01 585.57,1525.01 583,1524.5C 582.433,1521.83 581.933,1519.17 581.5,1516.5C 582.5,1516.5 583.5,1516.5 584.5,1516.5C 585.256,1512.5 587.756,1510.17 592,1509.5C 594.707,1511.27 597.54,1512.43 600.5,1513C 602.388,1508.47 604.221,1503.97 606,1499.5C 610.757,1495.83 615.257,1496.33 619.5,1501C 623.177,1501.11 626.843,1501.11 630.5,1501C 632.49,1502.75 634.823,1503.75 637.5,1504C 639.24,1506.04 641.074,1507.87 643,1509.5C 645.744,1508.7 648.411,1507.7 651,1506.5C 653.453,1507.83 655.953,1508.66 658.5,1509C 656.307,1506.6 654.974,1503.76 654.5,1500.5C 656.898,1495.88 658.565,1491.05 659.5,1486C 656.804,1481.78 654.804,1477.28 653.5,1472.5C 655.884,1472.56 658.218,1472.22 660.5,1471.5C 667.835,1473.17 675.168,1473.84 682.5,1473.5C 683.43,1470.11 685.097,1469.94 687.5,1473C 688.833,1473.67 690.167,1473.67 691.5,1473C 693.995,1468.35 696.995,1464.02 700.5,1460C 703.14,1459.16 705.473,1459.66 707.5,1461.5C 710.414,1460.6 713.247,1460.93 716,1462.5C 720.362,1461.13 723.862,1458.63 726.5,1455C 728.421,1454.64 730.088,1453.81 731.5,1452.5C 735.264,1446.57 739.598,1441.07 744.5,1436C 746.193,1435.15 747.86,1434.32 749.5,1433.5 Z"/>
                            <path style="opacity:0.947" fill="#8c564a"
                                  d="M 685.5,1864.5 C 686.239,1864.37 686.906,1864.54 687.5,1865C 685.941,1869.97 683.274,1874.14 679.5,1877.5C 681.241,1881.41 680.241,1882.74 676.5,1881.5C 674.945,1881.72 673.611,1882.39 672.5,1883.5C 671.77,1881.66 671.103,1879.83 670.5,1878C 672.224,1875.54 674.224,1872.71 676.5,1869.5C 679.724,1868.06 682.724,1866.39 685.5,1864.5 Z"/>

                        </g>

                        <g id="mekong_river_delta" class="regions">
                            <path style="opacity:0.995" fill="#e276c1"
                                  d="M 623.5,1594.5 C 624.016,1596.2 625.016,1597.53 626.5,1598.5C 630.687,1596.93 635.02,1596.27 639.5,1596.5C 639.5,1594.83 639.5,1593.17 639.5,1591.5C 642.016,1591.76 644.35,1592.59 646.5,1594C 648.752,1596.89 651.752,1598.22 655.5,1598C 659.418,1600.88 663.585,1603.38 668,1605.5C 667.398,1610.17 666.398,1614.84 665,1619.5C 663.229,1620.3 661.729,1621.47 660.5,1623C 662.203,1625.93 664.703,1627.77 668,1628.5C 669.715,1630.94 670.882,1633.6 671.5,1636.5C 675.858,1635.85 679.691,1636.85 683,1639.5C 684.737,1638.38 686.571,1637.38 688.5,1636.5C 691.818,1637.1 692.818,1638.76 691.5,1641.5C 694.114,1646.27 694.947,1651.27 694,1656.5C 699.34,1662.18 702.84,1668.84 704.5,1676.5C 701.786,1677.55 700.119,1679.55 699.5,1682.5C 699.897,1689.39 700.397,1696.39 701,1703.5C 699.207,1706.3 697.04,1708.8 694.5,1711C 684.421,1715.21 682.754,1721.71 689.5,1730.5C 686.959,1736.56 682.959,1740.39 677.5,1742C 676.789,1743.25 675.956,1744.42 675,1745.5C 678.081,1761.29 671.581,1770.95 655.5,1774.5C 651.274,1772.45 647.441,1769.78 644,1766.5C 641.64,1769.36 639.473,1772.36 637.5,1775.5C 635.5,1776.5 633.5,1777.5 631.5,1778.5C 630.911,1781.28 629.578,1783.61 627.5,1785.5C 630.28,1788.99 629.947,1792.15 626.5,1795C 614.753,1798.25 603.087,1801.91 591.5,1806C 578.224,1812.8 564.558,1818.8 550.5,1824C 544.742,1827.75 539.575,1832.25 535,1837.5C 532.136,1848.91 526.469,1858.57 518,1866.5C 509.108,1868.39 502.942,1873.56 499.5,1882C 489.076,1886.48 478.243,1889.65 467,1891.5C 461.756,1890.06 456.59,1888.4 451.5,1886.5C 450.756,1885.01 450.09,1883.51 449.5,1882C 451.066,1879.01 453.233,1878.18 456,1879.5C 457.627,1879.37 459.127,1878.87 460.5,1878C 458.15,1875.63 457.983,1873.13 460,1870.5C 462.761,1869.2 465.595,1868.04 468.5,1867C 469.357,1866.31 470.023,1865.48 470.5,1864.5C 467.437,1865.3 464.104,1865.3 460.5,1864.5C 459.063,1862.98 458.396,1861.15 458.5,1859C 461.291,1823.5 464.124,1788 467,1752.5C 468.067,1745.89 469.9,1739.56 472.5,1733.5C 474.766,1732.69 477.1,1732.19 479.5,1732C 484.132,1726.7 489.465,1722.37 495.5,1719C 492.288,1712.73 487.621,1707.89 481.5,1704.5C 477.799,1706.22 474.132,1706.39 470.5,1705C 467.963,1702.09 465.796,1698.93 464,1695.5C 461.555,1694.02 459.388,1692.19 457.5,1690C 455.5,1689.33 453.5,1689.33 451.5,1690C 448.462,1692.7 445.795,1695.7 443.5,1699C 441.19,1699.5 438.857,1699.66 436.5,1699.5C 436.421,1698.07 436.754,1696.74 437.5,1695.5C 436.167,1691.5 434.833,1687.5 433.5,1683.5C 429.577,1679.83 426.244,1675.66 423.5,1671C 421.744,1670.86 420.078,1671.36 418.5,1672.5C 417.453,1671.08 417.453,1669.58 418.5,1668C 418.097,1666.53 417.43,1665.19 416.5,1664C 419.218,1662.23 422.051,1662.07 425,1663.5C 428.588,1658.15 432.754,1653.32 437.5,1649C 448.432,1650.03 459.432,1650.37 470.5,1650C 473.678,1644.64 477.345,1639.64 481.5,1635C 486.6,1632.39 491.267,1629.22 495.5,1625.5C 494.52,1624.02 493.353,1622.69 492,1621.5C 491.557,1617.12 490.39,1612.95 488.5,1609C 488.527,1601.48 492.194,1597.31 499.5,1596.5C 500.645,1597.78 500.645,1599.11 499.5,1600.5C 505.713,1602.52 512.047,1604.02 518.5,1605C 520.917,1606.63 523.417,1608.13 526,1609.5C 529.339,1604.67 532.839,1600 536.5,1595.5C 548.536,1599.17 559.869,1597.34 570.5,1590C 573.188,1589.61 575.855,1589.11 578.5,1588.5C 579.442,1588.61 580.275,1588.94 581,1589.5C 583.245,1595 586.245,1600 590,1604.5C 589.954,1606.31 590.12,1607.98 590.5,1609.5C 592.167,1610.17 593.833,1610.83 595.5,1611.5C 596.228,1609.81 597.228,1608.31 598.5,1607C 597.424,1605.27 597.257,1603.44 598,1601.5C 602.5,1605.33 607,1609.17 611.5,1613C 615.423,1615.56 619.589,1616.06 624,1614.5C 625.261,1614.76 626.261,1615.43 627,1616.5C 626.083,1611.84 623.917,1607.67 620.5,1604C 622.543,1601.88 622.876,1599.55 621.5,1597C 621.639,1595.7 622.305,1594.87 623.5,1594.5 Z"/>
                            <path style="opacity:0.96" fill="#e277c1"
                                  d="M 365.5,1659.5 C 369.121,1661.92 372.288,1664.92 375,1668.5C 376.131,1674.47 376.464,1680.47 376,1686.5C 372.968,1692.33 370.802,1698.16 369.5,1704C 371.673,1705.86 372.007,1708.03 370.5,1710.5C 371.5,1711.83 372.5,1713.17 373.5,1714.5C 370.833,1715.83 368.167,1715.83 365.5,1714.5C 365,1713.5 364.5,1712.5 364,1711.5C 362.533,1703.03 360.533,1694.7 358,1686.5C 356.833,1684.83 355.667,1683.17 354.5,1681.5C 347.408,1680.12 344.408,1675.95 345.5,1669C 348.827,1668.47 351.994,1668.97 355,1670.5C 357.392,1667.62 359.559,1664.62 361.5,1661.5C 363.026,1661.01 364.359,1660.34 365.5,1659.5 Z"/>

                            <path style="opacity:0.794" fill="#e277c1"
                                  d="M 467.5,1716.5 C 468.239,1716.37 468.906,1716.54 469.5,1717C 468.598,1719.2 467.598,1721.37 466.5,1723.5C 465.5,1722.17 464.5,1720.83 463.5,1719.5C 464.901,1718.48 466.235,1717.48 467.5,1716.5 Z"/>

                            <path style="opacity:0.742" fill="#e277c2"
                                  d="M 441.5,1735.5 C 442.708,1736.23 444.041,1736.57 445.5,1736.5C 446.259,1740.24 444.759,1741.91 441,1741.5C 439.833,1741.17 438.667,1740.83 437.5,1740.5C 438.857,1738.81 440.19,1737.15 441.5,1735.5 Z"/>

                            <path style="opacity:0.757" fill="#e277c1"
                                  d="M 407.5,1749.5 C 409.174,1752.55 409.674,1755.89 409,1759.5C 404.858,1756.74 404.358,1753.4 407.5,1749.5 Z"/>

                            <path style="opacity:0.81" fill="#e277c1"
                                  d="M 299.5,1796.5 C 301.484,1796.38 303.15,1797.05 304.5,1798.5C 300.371,1805.11 297.704,1804.78 296.5,1797.5C 297.791,1797.74 298.791,1797.4 299.5,1796.5 Z"/>
                        </g>
                    </g>

                    <g transform="translate(0,0) scale(1)">
                        <text x="520" y="330" class="vn_city_title">H Ni</text>
                        <polygon id="city1" class="vn_capital"
                                 transform="translate(350.93 155.04) scale(1.01 1)"
                                 points="206.72 131.89 209.05 136.61 214.26 137.36 210.49 141.03 211.38 146.22 206.72 143.77 202.07 146.22 202.96 141.03 199.19 137.36 204.39 136.61 206.72 131.89"/>

                        <circle id="city2" class="vn_city" cx="868.75" cy="975" r="4.38"/>
                        <text id="text2" class="vn_city_title" transform="translate(825.43 1005.79) scale(1.01 1)">
                            Nng
                        </text>
                        <text id="text3" class="vn_city_title" transform="translate(610.93 1640.04) scale(1.01 1)">TP.
                            H Ch Minh
                        </text>
                        <circle id="city3" class="vn_city" cx="690.11" cy="1610.2" r="4.38"/>
                    </g>
                </g>
            </g>
        </g>
    </g>
</svg>
